solid CATIA STL
  facet normal -1.000000e+00  0.000000e+00  0.000000e+00
    outer loop
      vertex -6.300000e+01 -1.240000e+02  0.000000e+00
      vertex -6.300000e+01 -1.240000e+02  4.000000e+00
      vertex -6.300000e+01 -1.180000e+02  0.000000e+00
    endloop
  endfacet
  facet normal -1.000000e+00  0.000000e+00  0.000000e+00
    outer loop
      vertex -6.300000e+01 -1.180000e+02  0.000000e+00
      vertex -6.300000e+01 -1.240000e+02  4.000000e+00
      vertex -6.300000e+01 -1.180000e+02  4.000000e+00
    endloop
  endfacet
  facet normal -1.000000e+00  0.000000e+00  0.000000e+00
    outer loop
      vertex -6.300000e+01 -1.180000e+02  0.000000e+00
      vertex -6.300000e+01 -1.180000e+02  4.000000e+00
      vertex -6.300000e+01 -9.700000e+01  0.000000e+00
    endloop
  endfacet
  facet normal -1.000000e+00  0.000000e+00  0.000000e+00
    outer loop
      vertex -6.300000e+01 -9.700000e+01  0.000000e+00
      vertex -6.300000e+01 -1.180000e+02  4.000000e+00
      vertex -6.300000e+01 -9.700000e+01  4.000000e+00
    endloop
  endfacet
  facet normal  0.000000e+00  0.000000e+00 -1.000000e+00
    outer loop
      vertex  7.222480e+01 -8.838359e+01  0.000000e+00
      vertex  7.084980e+01 -8.738460e+01  0.000000e+00
      vertex  7.800000e+01 -8.300000e+01  0.000000e+00
    endloop
  endfacet
  facet normal  0.000000e+00  0.000000e+00 -1.000000e+00
    outer loop
      vertex  7.222480e+01  9.161641e+01  0.000000e+00
      vertex  7.084980e+01  9.261540e+01  0.000000e+00
      vertex  7.800000e+01  9.700000e+01  0.000000e+00
    endloop
  endfacet
  facet normal  0.000000e+00  0.000000e+00 -1.000000e+00
    outer loop
      vertex  6.915020e+01  8.738460e+01  0.000000e+00
      vertex  6.300000e+01  8.300000e+01  0.000000e+00
      vertex -6.300000e+01  8.300000e+01  0.000000e+00
    endloop
  endfacet
  facet normal  -0.000000e+00  0.000000e+00 -1.000000e+00
    outer loop
      vertex -7.800000e+01 -8.300000e+01  0.000000e+00
      vertex -6.300000e+01 -8.300000e+01  0.000000e+00
      vertex -6.915020e+01 -8.738460e+01  0.000000e+00
    endloop
  endfacet
  facet normal  0.000000e+00  0.000000e+00 -1.000000e+00
    outer loop
      vertex -7.800000e+01 -8.300000e+01  0.000000e+00
      vertex -6.915020e+01 -8.738460e+01  0.000000e+00
      vertex -7.084980e+01 -8.738460e+01  0.000000e+00
    endloop
  endfacet
  facet normal  -0.000000e+00  0.000000e+00 -1.000000e+00
    outer loop
      vertex -7.800000e+01 -8.300000e+01  0.000000e+00
      vertex -7.084980e+01 -8.738460e+01  0.000000e+00
      vertex -7.222480e+01 -8.838359e+01  0.000000e+00
    endloop
  endfacet
  facet normal  -0.000000e+00  0.000000e+00 -1.000000e+00
    outer loop
      vertex -7.800000e+01 -8.300000e+01  0.000000e+00
      vertex -7.222480e+01 -8.838359e+01  0.000000e+00
      vertex -7.800000e+01 -9.700000e+01  0.000000e+00
    endloop
  endfacet
  facet normal  -0.000000e+00  0.000000e+00 -1.000000e+00
    outer loop
      vertex -7.800000e+01  9.700000e+01  0.000000e+00
      vertex -6.300000e+01  9.700000e+01  0.000000e+00
      vertex -6.915020e+01  9.261540e+01  0.000000e+00
    endloop
  endfacet
  facet normal  0.000000e+00  0.000000e+00 -1.000000e+00
    outer loop
      vertex -7.800000e+01  9.700000e+01  0.000000e+00
      vertex -6.915020e+01  9.261540e+01  0.000000e+00
      vertex -7.084980e+01  9.261540e+01  0.000000e+00
    endloop
  endfacet
  facet normal  -0.000000e+00  0.000000e+00 -1.000000e+00
    outer loop
      vertex -7.800000e+01  9.700000e+01  0.000000e+00
      vertex -7.084980e+01  9.261540e+01  0.000000e+00
      vertex -7.222480e+01  9.161641e+01  0.000000e+00
    endloop
  endfacet
  facet normal  -0.000000e+00  0.000000e+00 -1.000000e+00
    outer loop
      vertex -7.800000e+01  9.700000e+01  0.000000e+00
      vertex -7.222480e+01  9.161641e+01  0.000000e+00
      vertex -7.800000e+01  8.300000e+01  0.000000e+00
    endloop
  endfacet
  facet normal  -0.000000e+00  0.000000e+00 -1.000000e+00
    outer loop
      vertex  6.300000e+01  9.700000e+01  0.000000e+00
      vertex  7.800000e+01  9.700000e+01  0.000000e+00
      vertex  7.084980e+01  9.261540e+01  0.000000e+00
    endloop
  endfacet
  facet normal  0.000000e+00  0.000000e+00 -1.000000e+00
    outer loop
      vertex  6.300000e+01  9.700000e+01  0.000000e+00
      vertex  7.084980e+01  9.261540e+01  0.000000e+00
      vertex  6.915020e+01  9.261540e+01  0.000000e+00
    endloop
  endfacet
  facet normal  0.000000e+00  0.000000e+00 -1.000000e+00
    outer loop
      vertex  6.300000e+01  9.700000e+01  0.000000e+00
      vertex  6.915020e+01  9.261540e+01  0.000000e+00
      vertex -6.915020e+01  9.261540e+01  0.000000e+00
    endloop
  endfacet
  facet normal  0.000000e+00  0.000000e+00 -1.000000e+00
    outer loop
      vertex  6.300000e+01  9.700000e+01  0.000000e+00
      vertex -6.915020e+01  9.261540e+01  0.000000e+00
      vertex -6.300000e+01  9.700000e+01  0.000000e+00
    endloop
  endfacet
  facet normal  0.000000e+00  0.000000e+00 -1.000000e+00
    outer loop
      vertex  6.300000e+01  9.700000e+01  0.000000e+00
      vertex -6.300000e+01  9.700000e+01  0.000000e+00
      vertex -6.300000e+01  1.180000e+02  0.000000e+00
    endloop
  endfacet
  facet normal  0.000000e+00  0.000000e+00 -1.000000e+00
    outer loop
      vertex  6.300000e+01  9.700000e+01  0.000000e+00
      vertex -6.300000e+01  1.180000e+02  0.000000e+00
      vertex  6.300000e+01  1.180000e+02  0.000000e+00
    endloop
  endfacet
  facet normal  -0.000000e+00  0.000000e+00 -1.000000e+00
    outer loop
      vertex  6.300000e+01 -8.300000e+01  0.000000e+00
      vertex  7.800000e+01 -8.300000e+01  0.000000e+00
      vertex  7.084980e+01 -8.738460e+01  0.000000e+00
    endloop
  endfacet
  facet normal  0.000000e+00  0.000000e+00 -1.000000e+00
    outer loop
      vertex  6.300000e+01 -8.300000e+01  0.000000e+00
      vertex  7.084980e+01 -8.738460e+01  0.000000e+00
      vertex  6.915020e+01 -8.738460e+01  0.000000e+00
    endloop
  endfacet
  facet normal  0.000000e+00  0.000000e+00 -1.000000e+00
    outer loop
      vertex  6.300000e+01 -8.300000e+01  0.000000e+00
      vertex  6.915020e+01 -8.738460e+01  0.000000e+00
      vertex -6.915020e+01 -8.738460e+01  0.000000e+00
    endloop
  endfacet
  facet normal  0.000000e+00  0.000000e+00 -1.000000e+00
    outer loop
      vertex  6.300000e+01 -8.300000e+01  0.000000e+00
      vertex -6.915020e+01 -8.738460e+01  0.000000e+00
      vertex -6.300000e+01 -8.300000e+01  0.000000e+00
    endloop
  endfacet
  facet normal  0.000000e+00  0.000000e+00 -1.000000e+00
    outer loop
      vertex  6.300000e+01 -8.300000e+01  0.000000e+00
      vertex -6.300000e+01 -8.300000e+01  0.000000e+00
      vertex -6.300000e+01  8.300000e+01  0.000000e+00
    endloop
  endfacet
  facet normal  0.000000e+00  0.000000e+00 -1.000000e+00
    outer loop
      vertex  6.300000e+01 -8.300000e+01  0.000000e+00
      vertex -6.300000e+01  8.300000e+01  0.000000e+00
      vertex  6.300000e+01  8.300000e+01  0.000000e+00
    endloop
  endfacet
  facet normal  0.000000e+00  0.000000e+00 -1.000000e+00
    outer loop
      vertex -7.800000e+01  8.300000e+01  0.000000e+00
      vertex -7.222480e+01  9.161641e+01  0.000000e+00
      vertex -7.275000e+01  9.000000e+01  0.000000e+00
    endloop
  endfacet
  facet normal  0.000000e+00  -0.000000e+00 -1.000000e+00
    outer loop
      vertex -7.800000e+01  8.300000e+01  0.000000e+00
      vertex -7.275000e+01  9.000000e+01  0.000000e+00
      vertex -7.222480e+01  8.838359e+01  0.000000e+00
    endloop
  endfacet
  facet normal  0.000000e+00  -0.000000e+00 -1.000000e+00
    outer loop
      vertex -7.800000e+01  8.300000e+01  0.000000e+00
      vertex -7.222480e+01  8.838359e+01  0.000000e+00
      vertex -7.084980e+01  8.738460e+01  0.000000e+00
    endloop
  endfacet
  facet normal  0.000000e+00  -0.000000e+00 -1.000000e+00
    outer loop
      vertex -7.800000e+01  8.300000e+01  0.000000e+00
      vertex -7.084980e+01  8.738460e+01  0.000000e+00
      vertex -6.915020e+01  8.738460e+01  0.000000e+00
    endloop
  endfacet
  facet normal  0.000000e+00  -0.000000e+00 -1.000000e+00
    outer loop
      vertex -7.800000e+01  8.300000e+01  0.000000e+00
      vertex -6.915020e+01  8.738460e+01  0.000000e+00
      vertex  6.915020e+01  8.738460e+01  0.000000e+00
    endloop
  endfacet
  facet normal  0.000000e+00  0.000000e+00 -1.000000e+00
    outer loop
      vertex -7.800000e+01  8.300000e+01  0.000000e+00
      vertex  6.915020e+01  8.738460e+01  0.000000e+00
      vertex -6.300000e+01  8.300000e+01  0.000000e+00
    endloop
  endfacet
  facet normal  0.000000e+00  0.000000e+00 -1.000000e+00
    outer loop
      vertex -7.800000e+01 -9.700000e+01  0.000000e+00
      vertex -7.222480e+01 -8.838359e+01  0.000000e+00
      vertex -7.275000e+01 -9.000000e+01  0.000000e+00
    endloop
  endfacet
  facet normal  0.000000e+00  -0.000000e+00 -1.000000e+00
    outer loop
      vertex -7.800000e+01 -9.700000e+01  0.000000e+00
      vertex -7.275000e+01 -9.000000e+01  0.000000e+00
      vertex -7.222480e+01 -9.161641e+01  0.000000e+00
    endloop
  endfacet
  facet normal  0.000000e+00  -0.000000e+00 -1.000000e+00
    outer loop
      vertex -7.800000e+01 -9.700000e+01  0.000000e+00
      vertex -7.222480e+01 -9.161641e+01  0.000000e+00
      vertex -7.084980e+01 -9.261540e+01  0.000000e+00
    endloop
  endfacet
  facet normal  0.000000e+00  -0.000000e+00 -1.000000e+00
    outer loop
      vertex -7.800000e+01 -9.700000e+01  0.000000e+00
      vertex -7.084980e+01 -9.261540e+01  0.000000e+00
      vertex -6.915020e+01 -9.261540e+01  0.000000e+00
    endloop
  endfacet
  facet normal  0.000000e+00  -0.000000e+00 -1.000000e+00
    outer loop
      vertex -7.800000e+01 -9.700000e+01  0.000000e+00
      vertex -6.915020e+01 -9.261540e+01  0.000000e+00
      vertex  6.915020e+01 -9.261540e+01  0.000000e+00
    endloop
  endfacet
  facet normal  0.000000e+00  0.000000e+00 -1.000000e+00
    outer loop
      vertex -7.800000e+01 -9.700000e+01  0.000000e+00
      vertex  6.915020e+01 -9.261540e+01  0.000000e+00
      vertex -6.300000e+01 -9.700000e+01  0.000000e+00
    endloop
  endfacet
  facet normal  0.000000e+00  0.000000e+00 -1.000000e+00
    outer loop
      vertex  7.800000e+01 -9.700000e+01  0.000000e+00
      vertex  6.300000e+01 -9.700000e+01  0.000000e+00
      vertex  6.915020e+01 -9.261540e+01  0.000000e+00
    endloop
  endfacet
  facet normal  0.000000e+00  0.000000e+00 -1.000000e+00
    outer loop
      vertex  7.800000e+01 -9.700000e+01  0.000000e+00
      vertex  6.915020e+01 -9.261540e+01  0.000000e+00
      vertex  7.084980e+01 -9.261540e+01  0.000000e+00
    endloop
  endfacet
  facet normal  0.000000e+00  0.000000e+00 -1.000000e+00
    outer loop
      vertex  7.800000e+01 -9.700000e+01  0.000000e+00
      vertex  7.084980e+01 -9.261540e+01  0.000000e+00
      vertex  7.222480e+01 -9.161641e+01  0.000000e+00
    endloop
  endfacet
  facet normal  0.000000e+00  0.000000e+00 -1.000000e+00
    outer loop
      vertex  7.800000e+01 -9.700000e+01  0.000000e+00
      vertex  7.222480e+01 -9.161641e+01  0.000000e+00
      vertex  7.275000e+01 -9.000000e+01  0.000000e+00
    endloop
  endfacet
  facet normal  0.000000e+00  0.000000e+00 -1.000000e+00
    outer loop
      vertex  7.800000e+01 -9.700000e+01  0.000000e+00
      vertex  7.275000e+01 -9.000000e+01  0.000000e+00
      vertex  7.222480e+01 -8.838359e+01  0.000000e+00
    endloop
  endfacet
  facet normal  0.000000e+00  0.000000e+00 -1.000000e+00
    outer loop
      vertex  7.800000e+01 -9.700000e+01  0.000000e+00
      vertex  7.222480e+01 -8.838359e+01  0.000000e+00
      vertex  7.800000e+01 -8.300000e+01  0.000000e+00
    endloop
  endfacet
  facet normal  0.000000e+00  0.000000e+00 -1.000000e+00
    outer loop
      vertex  7.800000e+01  8.300000e+01  0.000000e+00
      vertex  6.300000e+01  8.300000e+01  0.000000e+00
      vertex  6.915020e+01  8.738460e+01  0.000000e+00
    endloop
  endfacet
  facet normal  0.000000e+00  0.000000e+00 -1.000000e+00
    outer loop
      vertex  7.800000e+01  8.300000e+01  0.000000e+00
      vertex  6.915020e+01  8.738460e+01  0.000000e+00
      vertex  7.084980e+01  8.738460e+01  0.000000e+00
    endloop
  endfacet
  facet normal  0.000000e+00  0.000000e+00 -1.000000e+00
    outer loop
      vertex  7.800000e+01  8.300000e+01  0.000000e+00
      vertex  7.084980e+01  8.738460e+01  0.000000e+00
      vertex  7.222480e+01  8.838359e+01  0.000000e+00
    endloop
  endfacet
  facet normal  0.000000e+00  0.000000e+00 -1.000000e+00
    outer loop
      vertex  7.800000e+01  8.300000e+01  0.000000e+00
      vertex  7.222480e+01  8.838359e+01  0.000000e+00
      vertex  7.275000e+01  9.000000e+01  0.000000e+00
    endloop
  endfacet
  facet normal  0.000000e+00  0.000000e+00 -1.000000e+00
    outer loop
      vertex  7.800000e+01  8.300000e+01  0.000000e+00
      vertex  7.275000e+01  9.000000e+01  0.000000e+00
      vertex  7.222480e+01  9.161641e+01  0.000000e+00
    endloop
  endfacet
  facet normal  0.000000e+00  0.000000e+00 -1.000000e+00
    outer loop
      vertex  7.800000e+01  8.300000e+01  0.000000e+00
      vertex  7.222480e+01  9.161641e+01  0.000000e+00
      vertex  7.800000e+01  9.700000e+01  0.000000e+00
    endloop
  endfacet
  facet normal  0.000000e+00  0.000000e+00 -1.000000e+00
    outer loop
      vertex  6.725000e+01  9.000000e+01  0.000000e+00
      vertex -6.777520e+01  9.161641e+01  0.000000e+00
      vertex  6.777520e+01  9.161641e+01  0.000000e+00
    endloop
  endfacet
  facet normal  0.000000e+00  0.000000e+00 -1.000000e+00
    outer loop
      vertex  6.777520e+01  9.161641e+01  0.000000e+00
      vertex -6.777520e+01  9.161641e+01  0.000000e+00
      vertex -6.915020e+01  9.261540e+01  0.000000e+00
    endloop
  endfacet
  facet normal  0.000000e+00  0.000000e+00 -1.000000e+00
    outer loop
      vertex  6.777520e+01  9.161641e+01  0.000000e+00
      vertex -6.915020e+01  9.261540e+01  0.000000e+00
      vertex  6.915020e+01  9.261540e+01  0.000000e+00
    endloop
  endfacet
  facet normal  0.000000e+00  0.000000e+00 -1.000000e+00
    outer loop
      vertex -6.777520e+01  9.161641e+01  0.000000e+00
      vertex  6.725000e+01  9.000000e+01  0.000000e+00
      vertex -6.725000e+01  9.000000e+01  0.000000e+00
    endloop
  endfacet
  facet normal  0.000000e+00  0.000000e+00 -1.000000e+00
    outer loop
      vertex -6.725000e+01  9.000000e+01  0.000000e+00
      vertex  6.725000e+01  9.000000e+01  0.000000e+00
      vertex  6.777520e+01  8.838359e+01  0.000000e+00
    endloop
  endfacet
  facet normal  0.000000e+00  0.000000e+00 -1.000000e+00
    outer loop
      vertex -6.725000e+01  9.000000e+01  0.000000e+00
      vertex  6.777520e+01  8.838359e+01  0.000000e+00
      vertex -6.777520e+01  8.838359e+01  0.000000e+00
    endloop
  endfacet
  facet normal  0.000000e+00  0.000000e+00 -1.000000e+00
    outer loop
      vertex -6.777520e+01  8.838359e+01  0.000000e+00
      vertex  6.777520e+01  8.838359e+01  0.000000e+00
      vertex  6.915020e+01  8.738460e+01  0.000000e+00
    endloop
  endfacet
  facet normal  0.000000e+00  0.000000e+00 -1.000000e+00
    outer loop
      vertex -6.777520e+01  8.838359e+01  0.000000e+00
      vertex  6.915020e+01  8.738460e+01  0.000000e+00
      vertex -6.915020e+01  8.738460e+01  0.000000e+00
    endloop
  endfacet
  facet normal  0.000000e+00  0.000000e+00 -1.000000e+00
    outer loop
      vertex  6.725000e+01 -9.000000e+01  0.000000e+00
      vertex -6.777520e+01 -8.838359e+01  0.000000e+00
      vertex  6.777520e+01 -8.838359e+01  0.000000e+00
    endloop
  endfacet
  facet normal  0.000000e+00  0.000000e+00 -1.000000e+00
    outer loop
      vertex  6.777520e+01 -8.838359e+01  0.000000e+00
      vertex -6.777520e+01 -8.838359e+01  0.000000e+00
      vertex -6.915020e+01 -8.738460e+01  0.000000e+00
    endloop
  endfacet
  facet normal  0.000000e+00  0.000000e+00 -1.000000e+00
    outer loop
      vertex  6.777520e+01 -8.838359e+01  0.000000e+00
      vertex -6.915020e+01 -8.738460e+01  0.000000e+00
      vertex  6.915020e+01 -8.738460e+01  0.000000e+00
    endloop
  endfacet
  facet normal  0.000000e+00  0.000000e+00 -1.000000e+00
    outer loop
      vertex -6.777520e+01 -8.838359e+01  0.000000e+00
      vertex  6.725000e+01 -9.000000e+01  0.000000e+00
      vertex -6.725000e+01 -9.000000e+01  0.000000e+00
    endloop
  endfacet
  facet normal  0.000000e+00  0.000000e+00 -1.000000e+00
    outer loop
      vertex -6.725000e+01 -9.000000e+01  0.000000e+00
      vertex  6.725000e+01 -9.000000e+01  0.000000e+00
      vertex  6.777520e+01 -9.161641e+01  0.000000e+00
    endloop
  endfacet
  facet normal  0.000000e+00  0.000000e+00 -1.000000e+00
    outer loop
      vertex -6.725000e+01 -9.000000e+01  0.000000e+00
      vertex  6.777520e+01 -9.161641e+01  0.000000e+00
      vertex -6.777520e+01 -9.161641e+01  0.000000e+00
    endloop
  endfacet
  facet normal  0.000000e+00  0.000000e+00 -1.000000e+00
    outer loop
      vertex -6.777520e+01 -9.161641e+01  0.000000e+00
      vertex  6.777520e+01 -9.161641e+01  0.000000e+00
      vertex  6.915020e+01 -9.261540e+01  0.000000e+00
    endloop
  endfacet
  facet normal  0.000000e+00  0.000000e+00 -1.000000e+00
    outer loop
      vertex -6.777520e+01 -9.161641e+01  0.000000e+00
      vertex  6.915020e+01 -9.261540e+01  0.000000e+00
      vertex -6.915020e+01 -9.261540e+01  0.000000e+00
    endloop
  endfacet
  facet normal  0.000000e+00  0.000000e+00 -1.000000e+00
    outer loop
      vertex  6.915020e+01 -9.261540e+01  0.000000e+00
      vertex  6.300000e+01 -9.700000e+01  0.000000e+00
      vertex -6.300000e+01 -9.700000e+01  0.000000e+00
    endloop
  endfacet
  facet normal  0.000000e+00  0.000000e+00 -1.000000e+00
    outer loop
      vertex -6.300000e+01 -9.700000e+01  0.000000e+00
      vertex  6.300000e+01 -9.700000e+01  0.000000e+00
      vertex  6.300000e+01 -1.180000e+02  0.000000e+00
    endloop
  endfacet
  facet normal  0.000000e+00  0.000000e+00 -1.000000e+00
    outer loop
      vertex -6.300000e+01 -9.700000e+01  0.000000e+00
      vertex  6.300000e+01 -1.180000e+02  0.000000e+00
      vertex -6.300000e+01 -1.180000e+02  0.000000e+00
    endloop
  endfacet
  facet normal  0.000000e+00  0.000000e+00 -9.999999e-01
    outer loop
      vertex -6.300000e+01 -1.180000e+02  0.000000e+00
      vertex  6.300000e+01 -1.180000e+02  0.000000e+00
      vertex  6.300000e+01 -1.240000e+02  0.000000e+00
    endloop
  endfacet
  facet normal  0.000000e+00  0.000000e+00 -9.999999e-01
    outer loop
      vertex -6.300000e+01 -1.180000e+02  0.000000e+00
      vertex  6.300000e+01 -1.240000e+02  0.000000e+00
      vertex -6.300000e+01 -1.240000e+02  0.000000e+00
    endloop
  endfacet
  facet normal  1.000000e+00  0.000000e+00  0.000000e+00
    outer loop
      vertex  6.300000e+01 -9.700000e+01  0.000000e+00
      vertex  6.300000e+01 -9.700000e+01  4.000000e+00
      vertex  6.300000e+01 -1.180000e+02  0.000000e+00
    endloop
  endfacet
  facet normal  1.000000e+00  0.000000e+00  0.000000e+00
    outer loop
      vertex  6.300000e+01 -1.180000e+02  0.000000e+00
      vertex  6.300000e+01 -9.700000e+01  4.000000e+00
      vertex  6.300000e+01 -1.180000e+02  4.000000e+00
    endloop
  endfacet
  facet normal  1.000000e+00  0.000000e+00  0.000000e+00
    outer loop
      vertex  6.300000e+01 -1.180000e+02  0.000000e+00
      vertex  6.300000e+01 -1.180000e+02  4.000000e+00
      vertex  6.300000e+01 -1.240000e+02  0.000000e+00
    endloop
  endfacet
  facet normal  1.000000e+00  0.000000e+00  0.000000e+00
    outer loop
      vertex  6.300000e+01 -1.240000e+02  0.000000e+00
      vertex  6.300000e+01 -1.180000e+02  4.000000e+00
      vertex  6.300000e+01 -1.240000e+02  4.000000e+00
    endloop
  endfacet
  facet normal  0.000000e+00  -0.000000e+00  1.000000e+00
    outer loop
      vertex  6.300000e+01 -8.300000e+01  4.000000e+00
      vertex  6.777520e+01 -8.838359e+01  4.000000e+00
      vertex  6.915020e+01 -8.738460e+01  4.000000e+00
    endloop
  endfacet
  facet normal  0.000000e+00  -0.000000e+00  1.000000e+00
    outer loop
      vertex  6.300000e+01  9.700000e+01  4.000000e+00
      vertex  6.777520e+01  9.161641e+01  4.000000e+00
      vertex  6.915020e+01  9.261540e+01  4.000000e+00
    endloop
  endfacet
  facet normal  -0.000000e+00  0.000000e+00  1.000000e+00
    outer loop
      vertex -6.300000e+01 -8.300000e+01  4.000000e+00
      vertex -7.800000e+01 -8.300000e+01  4.000000e+00
      vertex -6.915020e+01 -8.738460e+01  4.000000e+00
    endloop
  endfacet
  facet normal  -0.000000e+00  0.000000e+00  1.000000e+00
    outer loop
      vertex -6.300000e+01 -8.300000e+01  4.000000e+00
      vertex -6.915020e+01 -8.738460e+01  4.000000e+00
      vertex -6.777520e+01 -8.838359e+01  4.000000e+00
    endloop
  endfacet
  facet normal  -0.000000e+00  0.000000e+00  1.000000e+00
    outer loop
      vertex -6.300000e+01 -8.300000e+01  4.000000e+00
      vertex -6.777520e+01 -8.838359e+01  4.000000e+00
      vertex -6.300000e+01 -9.700000e+01  4.000000e+00
    endloop
  endfacet
  facet normal  -0.000000e+00  0.000000e+00  1.000000e+00
    outer loop
      vertex -6.300000e+01 -8.300000e+01  4.000000e+00
      vertex -6.300000e+01 -9.700000e+01  4.000000e+00
      vertex -5.850000e+01 -1.135000e+02  4.000000e+00
    endloop
  endfacet
  facet normal  0.000000e+00  0.000000e+00  1.000000e+00
    outer loop
      vertex -6.300000e+01 -8.300000e+01  4.000000e+00
      vertex -5.850000e+01 -1.135000e+02  4.000000e+00
      vertex -6.300000e+01  8.300000e+01  4.000000e+00
    endloop
  endfacet
  facet normal  -0.000000e+00  0.000000e+00  1.000000e+00
    outer loop
      vertex  7.800000e+01  9.700000e+01  4.000000e+00
      vertex  6.300000e+01  9.700000e+01  4.000000e+00
      vertex  6.915020e+01  9.261540e+01  4.000000e+00
    endloop
  endfacet
  facet normal  0.000000e+00  0.000000e+00  1.000000e+00
    outer loop
      vertex  7.800000e+01  9.700000e+01  4.000000e+00
      vertex  6.915020e+01  9.261540e+01  4.000000e+00
      vertex  7.084980e+01  9.261540e+01  4.000000e+00
    endloop
  endfacet
  facet normal  -0.000000e+00  0.000000e+00  1.000000e+00
    outer loop
      vertex  7.800000e+01  9.700000e+01  4.000000e+00
      vertex  7.084980e+01  9.261540e+01  4.000000e+00
      vertex  7.222480e+01  9.161641e+01  4.000000e+00
    endloop
  endfacet
  facet normal  -0.000000e+00  0.000000e+00  1.000000e+00
    outer loop
      vertex  7.800000e+01  9.700000e+01  4.000000e+00
      vertex  7.222480e+01  9.161641e+01  4.000000e+00
      vertex  7.800000e+01  8.300000e+01  4.000000e+00
    endloop
  endfacet
  facet normal  0.000000e+00  0.000000e+00  1.000000e+00
    outer loop
      vertex  6.300000e+01  8.300000e+01  4.000000e+00
      vertex  7.800000e+01  8.300000e+01  4.000000e+00
      vertex  7.084980e+01  8.738460e+01  4.000000e+00
    endloop
  endfacet
  facet normal  0.000000e+00  0.000000e+00  1.000000e+00
    outer loop
      vertex  6.300000e+01  8.300000e+01  4.000000e+00
      vertex  7.084980e+01  8.738460e+01  4.000000e+00
      vertex  6.915020e+01  8.738460e+01  4.000000e+00
    endloop
  endfacet
  facet normal  0.000000e+00  0.000000e+00  1.000000e+00
    outer loop
      vertex  6.300000e+01  8.300000e+01  4.000000e+00
      vertex  6.915020e+01  8.738460e+01  4.000000e+00
      vertex  6.777520e+01  8.838359e+01  4.000000e+00
    endloop
  endfacet
  facet normal  0.000000e+00  0.000000e+00  9.999999e-01
    outer loop
      vertex  6.300000e+01  8.300000e+01  4.000000e+00
      vertex  6.777520e+01  8.838359e+01  4.000000e+00
      vertex  6.725000e+01  9.000000e+01  4.000000e+00
    endloop
  endfacet
  facet normal  0.000000e+00  -0.000000e+00  1.000000e+00
    outer loop
      vertex  6.300000e+01  8.300000e+01  4.000000e+00
      vertex  6.725000e+01  9.000000e+01  4.000000e+00
      vertex  6.777520e+01  9.161641e+01  4.000000e+00
    endloop
  endfacet
  facet normal  0.000000e+00  0.000000e+00  1.000000e+00
    outer loop
      vertex  6.300000e+01  8.300000e+01  4.000000e+00
      vertex  6.777520e+01  9.161641e+01  4.000000e+00
      vertex  6.300000e+01  9.700000e+01  4.000000e+00
    endloop
  endfacet
  facet normal  0.000000e+00  0.000000e+00  1.000000e+00
    outer loop
      vertex  6.300000e+01  8.300000e+01  4.000000e+00
      vertex  6.300000e+01  9.700000e+01  4.000000e+00
      vertex  5.850000e+01 -1.135000e+02  4.000000e+00
    endloop
  endfacet
  facet normal  0.000000e+00  0.000000e+00  1.000000e+00
    outer loop
      vertex  6.300000e+01  8.300000e+01  4.000000e+00
      vertex  5.850000e+01 -1.135000e+02  4.000000e+00
      vertex  6.300000e+01 -8.300000e+01  4.000000e+00
    endloop
  endfacet
  facet normal  -0.000000e+00  0.000000e+00  1.000000e+00
    outer loop
      vertex  7.800000e+01 -8.300000e+01  4.000000e+00
      vertex  6.300000e+01 -8.300000e+01  4.000000e+00
      vertex  6.915020e+01 -8.738460e+01  4.000000e+00
    endloop
  endfacet
  facet normal  0.000000e+00  0.000000e+00  1.000000e+00
    outer loop
      vertex  7.800000e+01 -8.300000e+01  4.000000e+00
      vertex  6.915020e+01 -8.738460e+01  4.000000e+00
      vertex  7.084980e+01 -8.738460e+01  4.000000e+00
    endloop
  endfacet
  facet normal  -0.000000e+00  0.000000e+00  1.000000e+00
    outer loop
      vertex  7.800000e+01 -8.300000e+01  4.000000e+00
      vertex  7.084980e+01 -8.738460e+01  4.000000e+00
      vertex  7.222480e+01 -8.838359e+01  4.000000e+00
    endloop
  endfacet
  facet normal  -0.000000e+00  0.000000e+00  1.000000e+00
    outer loop
      vertex  7.800000e+01 -8.300000e+01  4.000000e+00
      vertex  7.222480e+01 -8.838359e+01  4.000000e+00
      vertex  7.800000e+01 -9.700000e+01  4.000000e+00
    endloop
  endfacet
  facet normal  0.000000e+00  0.000000e+00  1.000000e+00
    outer loop
      vertex  6.300000e+01 -9.700000e+01  4.000000e+00
      vertex  7.800000e+01 -9.700000e+01  4.000000e+00
      vertex  7.084980e+01 -9.261540e+01  4.000000e+00
    endloop
  endfacet
  facet normal  0.000000e+00  0.000000e+00  1.000000e+00
    outer loop
      vertex  6.300000e+01 -9.700000e+01  4.000000e+00
      vertex  7.084980e+01 -9.261540e+01  4.000000e+00
      vertex  6.915020e+01 -9.261540e+01  4.000000e+00
    endloop
  endfacet
  facet normal  0.000000e+00  0.000000e+00  1.000000e+00
    outer loop
      vertex  6.300000e+01 -9.700000e+01  4.000000e+00
      vertex  6.915020e+01 -9.261540e+01  4.000000e+00
      vertex  6.777520e+01 -9.161641e+01  4.000000e+00
    endloop
  endfacet
  facet normal  0.000000e+00  0.000000e+00  9.999999e-01
    outer loop
      vertex  6.300000e+01 -9.700000e+01  4.000000e+00
      vertex  6.777520e+01 -9.161641e+01  4.000000e+00
      vertex  6.725000e+01 -9.000000e+01  4.000000e+00
    endloop
  endfacet
  facet normal  0.000000e+00  -0.000000e+00  1.000000e+00
    outer loop
      vertex  6.300000e+01 -9.700000e+01  4.000000e+00
      vertex  6.725000e+01 -9.000000e+01  4.000000e+00
      vertex  6.777520e+01 -8.838359e+01  4.000000e+00
    endloop
  endfacet
  facet normal  0.000000e+00  0.000000e+00  1.000000e+00
    outer loop
      vertex  6.300000e+01 -9.700000e+01  4.000000e+00
      vertex  6.777520e+01 -8.838359e+01  4.000000e+00
      vertex  6.300000e+01 -8.300000e+01  4.000000e+00
    endloop
  endfacet
  facet normal  0.000000e+00  0.000000e+00  1.000000e+00
    outer loop
      vertex  6.300000e+01 -9.700000e+01  4.000000e+00
      vertex  6.300000e+01 -8.300000e+01  4.000000e+00
      vertex  5.850000e+01 -1.135000e+02  4.000000e+00
    endloop
  endfacet
  facet normal  -0.000000e+00  0.000000e+00  9.999999e-01
    outer loop
      vertex  6.300000e+01 -9.700000e+01  4.000000e+00
      vertex  5.850000e+01 -1.135000e+02  4.000000e+00
      vertex  6.300000e+01 -1.180000e+02  4.000000e+00
    endloop
  endfacet
  facet normal  0.000000e+00  0.000000e+00  1.000000e+00
    outer loop
      vertex -7.800000e+01 -8.300000e+01  4.000000e+00
      vertex -7.800000e+01 -9.700000e+01  4.000000e+00
      vertex -7.222480e+01 -8.838359e+01  4.000000e+00
    endloop
  endfacet
  facet normal  0.000000e+00  -0.000000e+00  1.000000e+00
    outer loop
      vertex -7.800000e+01 -8.300000e+01  4.000000e+00
      vertex -7.222480e+01 -8.838359e+01  4.000000e+00
      vertex -7.084980e+01 -8.738460e+01  4.000000e+00
    endloop
  endfacet
  facet normal  0.000000e+00  -0.000000e+00  1.000000e+00
    outer loop
      vertex -7.800000e+01 -8.300000e+01  4.000000e+00
      vertex -7.084980e+01 -8.738460e+01  4.000000e+00
      vertex -6.915020e+01 -8.738460e+01  4.000000e+00
    endloop
  endfacet
  facet normal  0.000000e+00  0.000000e+00  1.000000e+00
    outer loop
      vertex -7.800000e+01  9.700000e+01  4.000000e+00
      vertex -7.800000e+01  8.300000e+01  4.000000e+00
      vertex -7.222480e+01  9.161641e+01  4.000000e+00
    endloop
  endfacet
  facet normal  0.000000e+00  -0.000000e+00  1.000000e+00
    outer loop
      vertex -7.800000e+01  9.700000e+01  4.000000e+00
      vertex -7.222480e+01  9.161641e+01  4.000000e+00
      vertex -7.084980e+01  9.261540e+01  4.000000e+00
    endloop
  endfacet
  facet normal  0.000000e+00  -0.000000e+00  1.000000e+00
    outer loop
      vertex -7.800000e+01  9.700000e+01  4.000000e+00
      vertex -7.084980e+01  9.261540e+01  4.000000e+00
      vertex -6.915020e+01  9.261540e+01  4.000000e+00
    endloop
  endfacet
  facet normal  -0.000000e+00  0.000000e+00  1.000000e+00
    outer loop
      vertex -6.300000e+01  9.700000e+01  4.000000e+00
      vertex -7.800000e+01  9.700000e+01  4.000000e+00
      vertex -6.915020e+01  9.261540e+01  4.000000e+00
    endloop
  endfacet
  facet normal  -0.000000e+00  0.000000e+00  1.000000e+00
    outer loop
      vertex -6.300000e+01  9.700000e+01  4.000000e+00
      vertex -6.915020e+01  9.261540e+01  4.000000e+00
      vertex -6.777520e+01  9.161641e+01  4.000000e+00
    endloop
  endfacet
  facet normal  -0.000000e+00  0.000000e+00  1.000000e+00
    outer loop
      vertex -6.300000e+01  9.700000e+01  4.000000e+00
      vertex -6.777520e+01  9.161641e+01  4.000000e+00
      vertex -6.300000e+01  8.300000e+01  4.000000e+00
    endloop
  endfacet
  facet normal  -0.000000e+00  0.000000e+00  1.000000e+00
    outer loop
      vertex -6.300000e+01  9.700000e+01  4.000000e+00
      vertex -6.300000e+01  8.300000e+01  4.000000e+00
      vertex -5.850000e+01 -1.135000e+02  4.000000e+00
    endloop
  endfacet
  facet normal  0.000000e+00  -0.000000e+00  1.000000e+00
    outer loop
      vertex -6.300000e+01  9.700000e+01  4.000000e+00
      vertex -5.850000e+01 -1.135000e+02  4.000000e+00
      vertex -5.850000e+01  1.135000e+02  4.000000e+00
    endloop
  endfacet
  facet normal  0.000000e+00  0.000000e+00  9.999999e-01
    outer loop
      vertex -6.300000e+01  9.700000e+01  4.000000e+00
      vertex -5.850000e+01  1.135000e+02  4.000000e+00
      vertex -6.300000e+01  1.180000e+02  4.000000e+00
    endloop
  endfacet
  facet normal  0.000000e+00  0.000000e+00  1.000000e+00
    outer loop
      vertex -7.800000e+01  8.300000e+01  4.000000e+00
      vertex -6.300000e+01  8.300000e+01  4.000000e+00
      vertex -6.915020e+01  8.738460e+01  4.000000e+00
    endloop
  endfacet
  facet normal  0.000000e+00  0.000000e+00  1.000000e+00
    outer loop
      vertex -7.800000e+01  8.300000e+01  4.000000e+00
      vertex -6.915020e+01  8.738460e+01  4.000000e+00
      vertex -7.084980e+01  8.738460e+01  4.000000e+00
    endloop
  endfacet
  facet normal  0.000000e+00  0.000000e+00  1.000000e+00
    outer loop
      vertex -7.800000e+01  8.300000e+01  4.000000e+00
      vertex -7.084980e+01  8.738460e+01  4.000000e+00
      vertex -7.222480e+01  8.838359e+01  4.000000e+00
    endloop
  endfacet
  facet normal  0.000000e+00  0.000000e+00  1.000000e+00
    outer loop
      vertex -7.800000e+01  8.300000e+01  4.000000e+00
      vertex -7.222480e+01  8.838359e+01  4.000000e+00
      vertex -7.275000e+01  9.000000e+01  4.000000e+00
    endloop
  endfacet
  facet normal  0.000000e+00  -0.000000e+00  1.000000e+00
    outer loop
      vertex -7.800000e+01  8.300000e+01  4.000000e+00
      vertex -7.275000e+01  9.000000e+01  4.000000e+00
      vertex -7.222480e+01  9.161641e+01  4.000000e+00
    endloop
  endfacet
  facet normal  0.000000e+00  0.000000e+00  1.000000e+00
    outer loop
      vertex -7.800000e+01 -9.700000e+01  4.000000e+00
      vertex -6.300000e+01 -9.700000e+01  4.000000e+00
      vertex -6.915020e+01 -9.261540e+01  4.000000e+00
    endloop
  endfacet
  facet normal  0.000000e+00  0.000000e+00  1.000000e+00
    outer loop
      vertex -7.800000e+01 -9.700000e+01  4.000000e+00
      vertex -6.915020e+01 -9.261540e+01  4.000000e+00
      vertex -7.084980e+01 -9.261540e+01  4.000000e+00
    endloop
  endfacet
  facet normal  0.000000e+00  0.000000e+00  1.000000e+00
    outer loop
      vertex -7.800000e+01 -9.700000e+01  4.000000e+00
      vertex -7.084980e+01 -9.261540e+01  4.000000e+00
      vertex -7.222480e+01 -9.161641e+01  4.000000e+00
    endloop
  endfacet
  facet normal  0.000000e+00  0.000000e+00  1.000000e+00
    outer loop
      vertex -7.800000e+01 -9.700000e+01  4.000000e+00
      vertex -7.222480e+01 -9.161641e+01  4.000000e+00
      vertex -7.275000e+01 -9.000000e+01  4.000000e+00
    endloop
  endfacet
  facet normal  0.000000e+00  -0.000000e+00  1.000000e+00
    outer loop
      vertex -7.800000e+01 -9.700000e+01  4.000000e+00
      vertex -7.275000e+01 -9.000000e+01  4.000000e+00
      vertex -7.222480e+01 -8.838359e+01  4.000000e+00
    endloop
  endfacet
  facet normal  0.000000e+00  0.000000e+00  1.000000e+00
    outer loop
      vertex  7.800000e+01 -9.700000e+01  4.000000e+00
      vertex  7.222480e+01 -8.838359e+01  4.000000e+00
      vertex  7.275000e+01 -9.000000e+01  4.000000e+00
    endloop
  endfacet
  facet normal  0.000000e+00  0.000000e+00  1.000000e+00
    outer loop
      vertex  7.800000e+01 -9.700000e+01  4.000000e+00
      vertex  7.275000e+01 -9.000000e+01  4.000000e+00
      vertex  7.222480e+01 -9.161641e+01  4.000000e+00
    endloop
  endfacet
  facet normal  0.000000e+00  0.000000e+00  1.000000e+00
    outer loop
      vertex  7.800000e+01 -9.700000e+01  4.000000e+00
      vertex  7.222480e+01 -9.161641e+01  4.000000e+00
      vertex  7.084980e+01 -9.261540e+01  4.000000e+00
    endloop
  endfacet
  facet normal  0.000000e+00  0.000000e+00  1.000000e+00
    outer loop
      vertex -6.300000e+01 -9.700000e+01  4.000000e+00
      vertex -6.777520e+01 -8.838359e+01  4.000000e+00
      vertex -6.725000e+01 -9.000000e+01  4.000000e+00
    endloop
  endfacet
  facet normal  0.000000e+00  0.000000e+00  9.999999e-01
    outer loop
      vertex -6.300000e+01 -9.700000e+01  4.000000e+00
      vertex -6.725000e+01 -9.000000e+01  4.000000e+00
      vertex -6.777520e+01 -9.161641e+01  4.000000e+00
    endloop
  endfacet
  facet normal  0.000000e+00  0.000000e+00  1.000000e+00
    outer loop
      vertex -6.300000e+01 -9.700000e+01  4.000000e+00
      vertex -6.777520e+01 -9.161641e+01  4.000000e+00
      vertex -6.915020e+01 -9.261540e+01  4.000000e+00
    endloop
  endfacet
  facet normal  0.000000e+00  0.000000e+00  1.000000e+00
    outer loop
      vertex -6.300000e+01  8.300000e+01  4.000000e+00
      vertex -6.777520e+01  9.161641e+01  4.000000e+00
      vertex -6.725000e+01  9.000000e+01  4.000000e+00
    endloop
  endfacet
  facet normal  0.000000e+00  0.000000e+00  9.999999e-01
    outer loop
      vertex -6.300000e+01  8.300000e+01  4.000000e+00
      vertex -6.725000e+01  9.000000e+01  4.000000e+00
      vertex -6.777520e+01  8.838359e+01  4.000000e+00
    endloop
  endfacet
  facet normal  0.000000e+00  0.000000e+00  1.000000e+00
    outer loop
      vertex -6.300000e+01  8.300000e+01  4.000000e+00
      vertex -6.777520e+01  8.838359e+01  4.000000e+00
      vertex -6.915020e+01  8.738460e+01  4.000000e+00
    endloop
  endfacet
  facet normal  0.000000e+00  0.000000e+00  1.000000e+00
    outer loop
      vertex  7.800000e+01  8.300000e+01  4.000000e+00
      vertex  7.222480e+01  9.161641e+01  4.000000e+00
      vertex  7.275000e+01  9.000000e+01  4.000000e+00
    endloop
  endfacet
  facet normal  0.000000e+00  0.000000e+00  1.000000e+00
    outer loop
      vertex  7.800000e+01  8.300000e+01  4.000000e+00
      vertex  7.275000e+01  9.000000e+01  4.000000e+00
      vertex  7.222480e+01  8.838359e+01  4.000000e+00
    endloop
  endfacet
  facet normal  0.000000e+00  0.000000e+00  1.000000e+00
    outer loop
      vertex  7.800000e+01  8.300000e+01  4.000000e+00
      vertex  7.222480e+01  8.838359e+01  4.000000e+00
      vertex  7.084980e+01  8.738460e+01  4.000000e+00
    endloop
  endfacet
  facet normal  0.000000e+00  0.000000e+00  9.999999e-01
    outer loop
      vertex  6.300000e+01 -1.240000e+02  4.000000e+00
      vertex  6.300000e+01 -1.180000e+02  4.000000e+00
      vertex -6.300000e+01 -1.240000e+02  4.000000e+00
    endloop
  endfacet
  facet normal  0.000000e+00  0.000000e+00  1.000000e+00
    outer loop
      vertex -6.300000e+01 -1.240000e+02  4.000000e+00
      vertex  6.300000e+01 -1.180000e+02  4.000000e+00
      vertex  5.850000e+01 -1.135000e+02  4.000000e+00
    endloop
  endfacet
  facet normal  0.000000e+00  0.000000e+00  1.000000e+00
    outer loop
      vertex -6.300000e+01 -1.240000e+02  4.000000e+00
      vertex  5.850000e+01 -1.135000e+02  4.000000e+00
      vertex -6.300000e+01 -1.180000e+02  4.000000e+00
    endloop
  endfacet
  facet normal  0.000000e+00  0.000000e+00  1.000000e+00
    outer loop
      vertex -6.300000e+01 -1.180000e+02  4.000000e+00
      vertex  5.850000e+01 -1.135000e+02  4.000000e+00
      vertex -5.850000e+01 -1.135000e+02  4.000000e+00
    endloop
  endfacet
  facet normal  0.000000e+00  0.000000e+00  9.999999e-01
    outer loop
      vertex -6.300000e+01 -1.180000e+02  4.000000e+00
      vertex -5.850000e+01 -1.135000e+02  4.000000e+00
      vertex -6.300000e+01 -9.700000e+01  4.000000e+00
    endloop
  endfacet
  facet normal  0.000000e+00  0.000000e+00  1.000000e+00
    outer loop
      vertex  5.850000e+01 -1.135000e+02  4.000000e+00
      vertex  6.300000e+01  9.700000e+01  4.000000e+00
      vertex  5.850000e+01  1.135000e+02  4.000000e+00
    endloop
  endfacet
  facet normal  -0.000000e+00  0.000000e+00  9.999999e-01
    outer loop
      vertex  5.850000e+01  1.135000e+02  4.000000e+00
      vertex  6.300000e+01  9.700000e+01  4.000000e+00
      vertex  6.300000e+01  1.180000e+02  4.000000e+00
    endloop
  endfacet
  facet normal  0.000000e+00  0.000000e+00  1.000000e+00
    outer loop
      vertex  5.850000e+01  1.135000e+02  4.000000e+00
      vertex  6.300000e+01  1.180000e+02  4.000000e+00
      vertex -5.850000e+01  1.135000e+02  4.000000e+00
    endloop
  endfacet
  facet normal  0.000000e+00  -0.000000e+00  9.999999e-01
    outer loop
      vertex -5.850000e+01  1.135000e+02  4.000000e+00
      vertex  6.300000e+01  1.180000e+02  4.000000e+00
      vertex -6.300000e+01  1.180000e+02  4.000000e+00
    endloop
  endfacet
  facet normal  0.000000e+00 -1.000000e+00  0.000000e+00
    outer loop
      vertex  6.300000e+01 -1.240000e+02  4.000000e+00
      vertex -6.300000e+01 -1.240000e+02  4.000000e+00
      vertex  6.300000e+01 -1.240000e+02  0.000000e+00
    endloop
  endfacet
  facet normal  0.000000e+00 -1.000000e+00  0.000000e+00
    outer loop
      vertex  6.300000e+01 -1.240000e+02  0.000000e+00
      vertex -6.300000e+01 -1.240000e+02  4.000000e+00
      vertex -6.300000e+01 -1.240000e+02  0.000000e+00
    endloop
  endfacet
  facet normal -5.877841e-01  8.090179e-01  0.000000e+00
    outer loop
      vertex  7.084980e+01 -9.261540e+01  0.000000e+00
      vertex  7.222480e+01 -9.161641e+01  4.000000e+00
      vertex  7.222480e+01 -9.161641e+01  0.000000e+00
    endloop
  endfacet
  facet normal -9.510571e-01  3.090152e-01  0.000000e+00
    outer loop
      vertex  7.222480e+01 -9.161641e+01  0.000000e+00
      vertex  7.222480e+01 -9.161641e+01  4.000000e+00
      vertex  7.275000e+01 -9.000000e+01  4.000000e+00
    endloop
  endfacet
  facet normal -9.510571e-01  3.090152e-01  0.000000e+00
    outer loop
      vertex  7.222480e+01 -9.161641e+01  0.000000e+00
      vertex  7.275000e+01 -9.000000e+01  4.000000e+00
      vertex  7.275000e+01 -9.000000e+01  0.000000e+00
    endloop
  endfacet
  facet normal -5.877841e-01  8.090179e-01  0.000000e+00
    outer loop
      vertex  7.222480e+01 -9.161641e+01  4.000000e+00
      vertex  7.084980e+01 -9.261540e+01  0.000000e+00
      vertex  7.084980e+01 -9.261540e+01  4.000000e+00
    endloop
  endfacet
  facet normal  0.000000e+00  1.000000e+00  0.000000e+00
    outer loop
      vertex  7.084980e+01 -9.261540e+01  4.000000e+00
      vertex  7.084980e+01 -9.261540e+01  0.000000e+00
      vertex  6.915020e+01 -9.261540e+01  0.000000e+00
    endloop
  endfacet
  facet normal  0.000000e+00  1.000000e+00  0.000000e+00
    outer loop
      vertex  7.084980e+01 -9.261540e+01  4.000000e+00
      vertex  6.915020e+01 -9.261540e+01  0.000000e+00
      vertex  6.915020e+01 -9.261540e+01  4.000000e+00
    endloop
  endfacet
  facet normal  5.877841e-01  8.090179e-01  0.000000e+00
    outer loop
      vertex  6.915020e+01 -9.261540e+01  4.000000e+00
      vertex  6.915020e+01 -9.261540e+01  0.000000e+00
      vertex  6.777520e+01 -9.161641e+01  0.000000e+00
    endloop
  endfacet
  facet normal  5.877841e-01  8.090179e-01  -0.000000e+00
    outer loop
      vertex  6.915020e+01 -9.261540e+01  4.000000e+00
      vertex  6.777520e+01 -9.161641e+01  0.000000e+00
      vertex  6.777520e+01 -9.161641e+01  4.000000e+00
    endloop
  endfacet
  facet normal  9.510571e-01  3.090152e-01  0.000000e+00
    outer loop
      vertex  6.777520e+01 -9.161641e+01  4.000000e+00
      vertex  6.777520e+01 -9.161641e+01  0.000000e+00
      vertex  6.725000e+01 -9.000000e+01  0.000000e+00
    endloop
  endfacet
  facet normal  9.510571e-01  3.090152e-01  -0.000000e+00
    outer loop
      vertex  6.777520e+01 -9.161641e+01  4.000000e+00
      vertex  6.725000e+01 -9.000000e+01  0.000000e+00
      vertex  6.725000e+01 -9.000000e+01  4.000000e+00
    endloop
  endfacet
  facet normal  5.877841e-01 -8.090179e-01  0.000000e+00
    outer loop
      vertex  6.915020e+01 -8.738460e+01  0.000000e+00
      vertex  6.777520e+01 -8.838359e+01  4.000000e+00
      vertex  6.777520e+01 -8.838359e+01  0.000000e+00
    endloop
  endfacet
  facet normal  9.510571e-01 -3.090152e-01  0.000000e+00
    outer loop
      vertex  6.777520e+01 -8.838359e+01  0.000000e+00
      vertex  6.777520e+01 -8.838359e+01  4.000000e+00
      vertex  6.725000e+01 -9.000000e+01  4.000000e+00
    endloop
  endfacet
  facet normal  9.510571e-01 -3.090152e-01  0.000000e+00
    outer loop
      vertex  6.777520e+01 -8.838359e+01  0.000000e+00
      vertex  6.725000e+01 -9.000000e+01  4.000000e+00
      vertex  6.725000e+01 -9.000000e+01  0.000000e+00
    endloop
  endfacet
  facet normal  5.877841e-01 -8.090179e-01  0.000000e+00
    outer loop
      vertex  6.777520e+01 -8.838359e+01  4.000000e+00
      vertex  6.915020e+01 -8.738460e+01  0.000000e+00
      vertex  6.915020e+01 -8.738460e+01  4.000000e+00
    endloop
  endfacet
  facet normal  0.000000e+00 -1.000000e+00  0.000000e+00
    outer loop
      vertex  6.915020e+01 -8.738460e+01  4.000000e+00
      vertex  6.915020e+01 -8.738460e+01  0.000000e+00
      vertex  7.084980e+01 -8.738460e+01  0.000000e+00
    endloop
  endfacet
  facet normal  0.000000e+00 -1.000000e+00  0.000000e+00
    outer loop
      vertex  6.915020e+01 -8.738460e+01  4.000000e+00
      vertex  7.084980e+01 -8.738460e+01  0.000000e+00
      vertex  7.084980e+01 -8.738460e+01  4.000000e+00
    endloop
  endfacet
  facet normal -5.877841e-01 -8.090179e-01  -0.000000e+00
    outer loop
      vertex  7.084980e+01 -8.738460e+01  4.000000e+00
      vertex  7.084980e+01 -8.738460e+01  0.000000e+00
      vertex  7.222480e+01 -8.838359e+01  0.000000e+00
    endloop
  endfacet
  facet normal -5.877841e-01 -8.090179e-01  0.000000e+00
    outer loop
      vertex  7.084980e+01 -8.738460e+01  4.000000e+00
      vertex  7.222480e+01 -8.838359e+01  0.000000e+00
      vertex  7.222480e+01 -8.838359e+01  4.000000e+00
    endloop
  endfacet
  facet normal -9.510571e-01 -3.090152e-01  -0.000000e+00
    outer loop
      vertex  7.222480e+01 -8.838359e+01  4.000000e+00
      vertex  7.222480e+01 -8.838359e+01  0.000000e+00
      vertex  7.275000e+01 -9.000000e+01  0.000000e+00
    endloop
  endfacet
  facet normal -9.510571e-01 -3.090152e-01  0.000000e+00
    outer loop
      vertex  7.222480e+01 -8.838359e+01  4.000000e+00
      vertex  7.275000e+01 -9.000000e+01  0.000000e+00
      vertex  7.275000e+01 -9.000000e+01  4.000000e+00
    endloop
  endfacet
  facet normal  5.877841e-01 -8.090179e-01  0.000000e+00
    outer loop
      vertex -7.084980e+01 -8.738460e+01  0.000000e+00
      vertex -7.222480e+01 -8.838359e+01  4.000000e+00
      vertex -7.222480e+01 -8.838359e+01  0.000000e+00
    endloop
  endfacet
  facet normal  9.510571e-01 -3.090152e-01  0.000000e+00
    outer loop
      vertex -7.222480e+01 -8.838359e+01  0.000000e+00
      vertex -7.222480e+01 -8.838359e+01  4.000000e+00
      vertex -7.275000e+01 -9.000000e+01  4.000000e+00
    endloop
  endfacet
  facet normal  9.510571e-01 -3.090152e-01  0.000000e+00
    outer loop
      vertex -7.222480e+01 -8.838359e+01  0.000000e+00
      vertex -7.275000e+01 -9.000000e+01  4.000000e+00
      vertex -7.275000e+01 -9.000000e+01  0.000000e+00
    endloop
  endfacet
  facet normal  5.877841e-01 -8.090179e-01  0.000000e+00
    outer loop
      vertex -7.222480e+01 -8.838359e+01  4.000000e+00
      vertex -7.084980e+01 -8.738460e+01  0.000000e+00
      vertex -7.084980e+01 -8.738460e+01  4.000000e+00
    endloop
  endfacet
  facet normal  0.000000e+00 -1.000000e+00  0.000000e+00
    outer loop
      vertex -7.084980e+01 -8.738460e+01  4.000000e+00
      vertex -7.084980e+01 -8.738460e+01  0.000000e+00
      vertex -6.915020e+01 -8.738460e+01  0.000000e+00
    endloop
  endfacet
  facet normal  0.000000e+00 -1.000000e+00  0.000000e+00
    outer loop
      vertex -7.084980e+01 -8.738460e+01  4.000000e+00
      vertex -6.915020e+01 -8.738460e+01  0.000000e+00
      vertex -6.915020e+01 -8.738460e+01  4.000000e+00
    endloop
  endfacet
  facet normal -5.877841e-01 -8.090179e-01  -0.000000e+00
    outer loop
      vertex -6.915020e+01 -8.738460e+01  4.000000e+00
      vertex -6.915020e+01 -8.738460e+01  0.000000e+00
      vertex -6.777520e+01 -8.838359e+01  0.000000e+00
    endloop
  endfacet
  facet normal -5.877841e-01 -8.090179e-01  0.000000e+00
    outer loop
      vertex -6.915020e+01 -8.738460e+01  4.000000e+00
      vertex -6.777520e+01 -8.838359e+01  0.000000e+00
      vertex -6.777520e+01 -8.838359e+01  4.000000e+00
    endloop
  endfacet
  facet normal -9.510571e-01 -3.090152e-01  -0.000000e+00
    outer loop
      vertex -6.777520e+01 -8.838359e+01  4.000000e+00
      vertex -6.777520e+01 -8.838359e+01  0.000000e+00
      vertex -6.725000e+01 -9.000000e+01  0.000000e+00
    endloop
  endfacet
  facet normal -9.510571e-01 -3.090152e-01  0.000000e+00
    outer loop
      vertex -6.777520e+01 -8.838359e+01  4.000000e+00
      vertex -6.725000e+01 -9.000000e+01  0.000000e+00
      vertex -6.725000e+01 -9.000000e+01  4.000000e+00
    endloop
  endfacet
  facet normal -5.877841e-01  8.090179e-01  0.000000e+00
    outer loop
      vertex -6.915020e+01 -9.261540e+01  0.000000e+00
      vertex -6.777520e+01 -9.161641e+01  4.000000e+00
      vertex -6.777520e+01 -9.161641e+01  0.000000e+00
    endloop
  endfacet
  facet normal -9.510571e-01  3.090152e-01  0.000000e+00
    outer loop
      vertex -6.777520e+01 -9.161641e+01  0.000000e+00
      vertex -6.777520e+01 -9.161641e+01  4.000000e+00
      vertex -6.725000e+01 -9.000000e+01  4.000000e+00
    endloop
  endfacet
  facet normal -9.510571e-01  3.090152e-01  0.000000e+00
    outer loop
      vertex -6.777520e+01 -9.161641e+01  0.000000e+00
      vertex -6.725000e+01 -9.000000e+01  4.000000e+00
      vertex -6.725000e+01 -9.000000e+01  0.000000e+00
    endloop
  endfacet
  facet normal -5.877841e-01  8.090179e-01  0.000000e+00
    outer loop
      vertex -6.777520e+01 -9.161641e+01  4.000000e+00
      vertex -6.915020e+01 -9.261540e+01  0.000000e+00
      vertex -6.915020e+01 -9.261540e+01  4.000000e+00
    endloop
  endfacet
  facet normal  0.000000e+00  1.000000e+00  0.000000e+00
    outer loop
      vertex -6.915020e+01 -9.261540e+01  4.000000e+00
      vertex -6.915020e+01 -9.261540e+01  0.000000e+00
      vertex -7.084980e+01 -9.261540e+01  0.000000e+00
    endloop
  endfacet
  facet normal  0.000000e+00  1.000000e+00  0.000000e+00
    outer loop
      vertex -6.915020e+01 -9.261540e+01  4.000000e+00
      vertex -7.084980e+01 -9.261540e+01  0.000000e+00
      vertex -7.084980e+01 -9.261540e+01  4.000000e+00
    endloop
  endfacet
  facet normal  5.877841e-01  8.090179e-01  0.000000e+00
    outer loop
      vertex -7.084980e+01 -9.261540e+01  4.000000e+00
      vertex -7.084980e+01 -9.261540e+01  0.000000e+00
      vertex -7.222480e+01 -9.161641e+01  0.000000e+00
    endloop
  endfacet
  facet normal  5.877841e-01  8.090179e-01  -0.000000e+00
    outer loop
      vertex -7.084980e+01 -9.261540e+01  4.000000e+00
      vertex -7.222480e+01 -9.161641e+01  0.000000e+00
      vertex -7.222480e+01 -9.161641e+01  4.000000e+00
    endloop
  endfacet
  facet normal  9.510571e-01  3.090152e-01  0.000000e+00
    outer loop
      vertex -7.222480e+01 -9.161641e+01  4.000000e+00
      vertex -7.222480e+01 -9.161641e+01  0.000000e+00
      vertex -7.275000e+01 -9.000000e+01  0.000000e+00
    endloop
  endfacet
  facet normal  9.510571e-01  3.090152e-01  -0.000000e+00
    outer loop
      vertex -7.222480e+01 -9.161641e+01  4.000000e+00
      vertex -7.275000e+01 -9.000000e+01  0.000000e+00
      vertex -7.275000e+01 -9.000000e+01  4.000000e+00
    endloop
  endfacet
  facet normal -5.877841e-01  8.090179e-01  0.000000e+00
    outer loop
      vertex  7.084980e+01  8.738460e+01  0.000000e+00
      vertex  7.222480e+01  8.838359e+01  4.000000e+00
      vertex  7.222480e+01  8.838359e+01  0.000000e+00
    endloop
  endfacet
  facet normal -9.510571e-01  3.090152e-01  0.000000e+00
    outer loop
      vertex  7.222480e+01  8.838359e+01  0.000000e+00
      vertex  7.222480e+01  8.838359e+01  4.000000e+00
      vertex  7.275000e+01  9.000000e+01  4.000000e+00
    endloop
  endfacet
  facet normal -9.510571e-01  3.090152e-01  0.000000e+00
    outer loop
      vertex  7.222480e+01  8.838359e+01  0.000000e+00
      vertex  7.275000e+01  9.000000e+01  4.000000e+00
      vertex  7.275000e+01  9.000000e+01  0.000000e+00
    endloop
  endfacet
  facet normal -5.877841e-01  8.090179e-01  0.000000e+00
    outer loop
      vertex  7.222480e+01  8.838359e+01  4.000000e+00
      vertex  7.084980e+01  8.738460e+01  0.000000e+00
      vertex  7.084980e+01  8.738460e+01  4.000000e+00
    endloop
  endfacet
  facet normal  0.000000e+00  1.000000e+00  0.000000e+00
    outer loop
      vertex  7.084980e+01  8.738460e+01  4.000000e+00
      vertex  7.084980e+01  8.738460e+01  0.000000e+00
      vertex  6.915020e+01  8.738460e+01  0.000000e+00
    endloop
  endfacet
  facet normal  0.000000e+00  1.000000e+00  0.000000e+00
    outer loop
      vertex  7.084980e+01  8.738460e+01  4.000000e+00
      vertex  6.915020e+01  8.738460e+01  0.000000e+00
      vertex  6.915020e+01  8.738460e+01  4.000000e+00
    endloop
  endfacet
  facet normal  5.877841e-01  8.090179e-01  0.000000e+00
    outer loop
      vertex  6.915020e+01  8.738460e+01  4.000000e+00
      vertex  6.915020e+01  8.738460e+01  0.000000e+00
      vertex  6.777520e+01  8.838359e+01  0.000000e+00
    endloop
  endfacet
  facet normal  5.877841e-01  8.090179e-01  -0.000000e+00
    outer loop
      vertex  6.915020e+01  8.738460e+01  4.000000e+00
      vertex  6.777520e+01  8.838359e+01  0.000000e+00
      vertex  6.777520e+01  8.838359e+01  4.000000e+00
    endloop
  endfacet
  facet normal  9.510571e-01  3.090152e-01  0.000000e+00
    outer loop
      vertex  6.777520e+01  8.838359e+01  4.000000e+00
      vertex  6.777520e+01  8.838359e+01  0.000000e+00
      vertex  6.725000e+01  9.000000e+01  0.000000e+00
    endloop
  endfacet
  facet normal  9.510571e-01  3.090152e-01  -0.000000e+00
    outer loop
      vertex  6.777520e+01  8.838359e+01  4.000000e+00
      vertex  6.725000e+01  9.000000e+01  0.000000e+00
      vertex  6.725000e+01  9.000000e+01  4.000000e+00
    endloop
  endfacet
  facet normal  5.877841e-01 -8.090179e-01  0.000000e+00
    outer loop
      vertex  6.915020e+01  9.261540e+01  0.000000e+00
      vertex  6.777520e+01  9.161641e+01  4.000000e+00
      vertex  6.777520e+01  9.161641e+01  0.000000e+00
    endloop
  endfacet
  facet normal  9.510571e-01 -3.090152e-01  0.000000e+00
    outer loop
      vertex  6.777520e+01  9.161641e+01  0.000000e+00
      vertex  6.777520e+01  9.161641e+01  4.000000e+00
      vertex  6.725000e+01  9.000000e+01  4.000000e+00
    endloop
  endfacet
  facet normal  9.510571e-01 -3.090152e-01  0.000000e+00
    outer loop
      vertex  6.777520e+01  9.161641e+01  0.000000e+00
      vertex  6.725000e+01  9.000000e+01  4.000000e+00
      vertex  6.725000e+01  9.000000e+01  0.000000e+00
    endloop
  endfacet
  facet normal  5.877841e-01 -8.090179e-01  0.000000e+00
    outer loop
      vertex  6.777520e+01  9.161641e+01  4.000000e+00
      vertex  6.915020e+01  9.261540e+01  0.000000e+00
      vertex  6.915020e+01  9.261540e+01  4.000000e+00
    endloop
  endfacet
  facet normal  0.000000e+00 -1.000000e+00  0.000000e+00
    outer loop
      vertex  6.915020e+01  9.261540e+01  4.000000e+00
      vertex  6.915020e+01  9.261540e+01  0.000000e+00
      vertex  7.084980e+01  9.261540e+01  0.000000e+00
    endloop
  endfacet
  facet normal  0.000000e+00 -1.000000e+00  0.000000e+00
    outer loop
      vertex  6.915020e+01  9.261540e+01  4.000000e+00
      vertex  7.084980e+01  9.261540e+01  0.000000e+00
      vertex  7.084980e+01  9.261540e+01  4.000000e+00
    endloop
  endfacet
  facet normal -5.877841e-01 -8.090179e-01  -0.000000e+00
    outer loop
      vertex  7.084980e+01  9.261540e+01  4.000000e+00
      vertex  7.084980e+01  9.261540e+01  0.000000e+00
      vertex  7.222480e+01  9.161641e+01  0.000000e+00
    endloop
  endfacet
  facet normal -5.877841e-01 -8.090179e-01  0.000000e+00
    outer loop
      vertex  7.084980e+01  9.261540e+01  4.000000e+00
      vertex  7.222480e+01  9.161641e+01  0.000000e+00
      vertex  7.222480e+01  9.161641e+01  4.000000e+00
    endloop
  endfacet
  facet normal -9.510571e-01 -3.090152e-01  -0.000000e+00
    outer loop
      vertex  7.222480e+01  9.161641e+01  4.000000e+00
      vertex  7.222480e+01  9.161641e+01  0.000000e+00
      vertex  7.275000e+01  9.000000e+01  0.000000e+00
    endloop
  endfacet
  facet normal -9.510571e-01 -3.090152e-01  0.000000e+00
    outer loop
      vertex  7.222480e+01  9.161641e+01  4.000000e+00
      vertex  7.275000e+01  9.000000e+01  0.000000e+00
      vertex  7.275000e+01  9.000000e+01  4.000000e+00
    endloop
  endfacet
  facet normal  5.877841e-01 -8.090179e-01  0.000000e+00
    outer loop
      vertex -7.084980e+01  9.261540e+01  0.000000e+00
      vertex -7.222480e+01  9.161641e+01  4.000000e+00
      vertex -7.222480e+01  9.161641e+01  0.000000e+00
    endloop
  endfacet
  facet normal  9.510571e-01 -3.090152e-01  0.000000e+00
    outer loop
      vertex -7.222480e+01  9.161641e+01  0.000000e+00
      vertex -7.222480e+01  9.161641e+01  4.000000e+00
      vertex -7.275000e+01  9.000000e+01  4.000000e+00
    endloop
  endfacet
  facet normal  9.510571e-01 -3.090152e-01  0.000000e+00
    outer loop
      vertex -7.222480e+01  9.161641e+01  0.000000e+00
      vertex -7.275000e+01  9.000000e+01  4.000000e+00
      vertex -7.275000e+01  9.000000e+01  0.000000e+00
    endloop
  endfacet
  facet normal  5.877841e-01 -8.090179e-01  0.000000e+00
    outer loop
      vertex -7.222480e+01  9.161641e+01  4.000000e+00
      vertex -7.084980e+01  9.261540e+01  0.000000e+00
      vertex -7.084980e+01  9.261540e+01  4.000000e+00
    endloop
  endfacet
  facet normal  0.000000e+00 -1.000000e+00  0.000000e+00
    outer loop
      vertex -7.084980e+01  9.261540e+01  4.000000e+00
      vertex -7.084980e+01  9.261540e+01  0.000000e+00
      vertex -6.915020e+01  9.261540e+01  0.000000e+00
    endloop
  endfacet
  facet normal  0.000000e+00 -1.000000e+00  0.000000e+00
    outer loop
      vertex -7.084980e+01  9.261540e+01  4.000000e+00
      vertex -6.915020e+01  9.261540e+01  0.000000e+00
      vertex -6.915020e+01  9.261540e+01  4.000000e+00
    endloop
  endfacet
  facet normal -5.877841e-01 -8.090179e-01  -0.000000e+00
    outer loop
      vertex -6.915020e+01  9.261540e+01  4.000000e+00
      vertex -6.915020e+01  9.261540e+01  0.000000e+00
      vertex -6.777520e+01  9.161641e+01  0.000000e+00
    endloop
  endfacet
  facet normal -5.877841e-01 -8.090179e-01  0.000000e+00
    outer loop
      vertex -6.915020e+01  9.261540e+01  4.000000e+00
      vertex -6.777520e+01  9.161641e+01  0.000000e+00
      vertex -6.777520e+01  9.161641e+01  4.000000e+00
    endloop
  endfacet
  facet normal -9.510571e-01 -3.090152e-01  -0.000000e+00
    outer loop
      vertex -6.777520e+01  9.161641e+01  4.000000e+00
      vertex -6.777520e+01  9.161641e+01  0.000000e+00
      vertex -6.725000e+01  9.000000e+01  0.000000e+00
    endloop
  endfacet
  facet normal -9.510571e-01 -3.090152e-01  0.000000e+00
    outer loop
      vertex -6.777520e+01  9.161641e+01  4.000000e+00
      vertex -6.725000e+01  9.000000e+01  0.000000e+00
      vertex -6.725000e+01  9.000000e+01  4.000000e+00
    endloop
  endfacet
  facet normal -5.877841e-01  8.090179e-01  0.000000e+00
    outer loop
      vertex -6.915020e+01  8.738460e+01  0.000000e+00
      vertex -6.777520e+01  8.838359e+01  4.000000e+00
      vertex -6.777520e+01  8.838359e+01  0.000000e+00
    endloop
  endfacet
  facet normal -9.510571e-01  3.090152e-01  0.000000e+00
    outer loop
      vertex -6.777520e+01  8.838359e+01  0.000000e+00
      vertex -6.777520e+01  8.838359e+01  4.000000e+00
      vertex -6.725000e+01  9.000000e+01  4.000000e+00
    endloop
  endfacet
  facet normal -9.510571e-01  3.090152e-01  0.000000e+00
    outer loop
      vertex -6.777520e+01  8.838359e+01  0.000000e+00
      vertex -6.725000e+01  9.000000e+01  4.000000e+00
      vertex -6.725000e+01  9.000000e+01  0.000000e+00
    endloop
  endfacet
  facet normal -5.877841e-01  8.090179e-01  0.000000e+00
    outer loop
      vertex -6.777520e+01  8.838359e+01  4.000000e+00
      vertex -6.915020e+01  8.738460e+01  0.000000e+00
      vertex -6.915020e+01  8.738460e+01  4.000000e+00
    endloop
  endfacet
  facet normal  0.000000e+00  1.000000e+00  0.000000e+00
    outer loop
      vertex -6.915020e+01  8.738460e+01  4.000000e+00
      vertex -6.915020e+01  8.738460e+01  0.000000e+00
      vertex -7.084980e+01  8.738460e+01  0.000000e+00
    endloop
  endfacet
  facet normal  0.000000e+00  1.000000e+00  0.000000e+00
    outer loop
      vertex -6.915020e+01  8.738460e+01  4.000000e+00
      vertex -7.084980e+01  8.738460e+01  0.000000e+00
      vertex -7.084980e+01  8.738460e+01  4.000000e+00
    endloop
  endfacet
  facet normal  5.877841e-01  8.090179e-01  0.000000e+00
    outer loop
      vertex -7.084980e+01  8.738460e+01  4.000000e+00
      vertex -7.084980e+01  8.738460e+01  0.000000e+00
      vertex -7.222480e+01  8.838359e+01  0.000000e+00
    endloop
  endfacet
  facet normal  5.877841e-01  8.090179e-01  -0.000000e+00
    outer loop
      vertex -7.084980e+01  8.738460e+01  4.000000e+00
      vertex -7.222480e+01  8.838359e+01  0.000000e+00
      vertex -7.222480e+01  8.838359e+01  4.000000e+00
    endloop
  endfacet
  facet normal  9.510571e-01  3.090152e-01  0.000000e+00
    outer loop
      vertex -7.222480e+01  8.838359e+01  4.000000e+00
      vertex -7.222480e+01  8.838359e+01  0.000000e+00
      vertex -7.275000e+01  9.000000e+01  0.000000e+00
    endloop
  endfacet
  facet normal  9.510571e-01  3.090152e-01  -0.000000e+00
    outer loop
      vertex -7.222480e+01  8.838359e+01  4.000000e+00
      vertex -7.275000e+01  9.000000e+01  0.000000e+00
      vertex -7.275000e+01  9.000000e+01  4.000000e+00
    endloop
  endfacet
  facet normal  0.000000e+00 -1.000000e+00  -0.000000e+00
    outer loop
      vertex -6.300000e+01  8.300000e+01  0.000000e+00
      vertex -6.300000e+01  8.300000e+01  4.000000e+00
      vertex -7.800000e+01  8.300000e+01  0.000000e+00
    endloop
  endfacet
  facet normal  0.000000e+00 -1.000000e+00  0.000000e+00
    outer loop
      vertex -7.800000e+01  8.300000e+01  0.000000e+00
      vertex -6.300000e+01  8.300000e+01  4.000000e+00
      vertex -7.800000e+01  8.300000e+01  4.000000e+00
    endloop
  endfacet
  facet normal  0.000000e+00  1.000000e+00  0.000000e+00
    outer loop
      vertex -6.300000e+01  9.700000e+01  0.000000e+00
      vertex -7.800000e+01  9.700000e+01  0.000000e+00
      vertex -6.300000e+01  9.700000e+01  4.000000e+00
    endloop
  endfacet
  facet normal  0.000000e+00  1.000000e+00  0.000000e+00
    outer loop
      vertex -6.300000e+01  9.700000e+01  4.000000e+00
      vertex -7.800000e+01  9.700000e+01  0.000000e+00
      vertex -7.800000e+01  9.700000e+01  4.000000e+00
    endloop
  endfacet
  facet normal  0.000000e+00  1.000000e+00  0.000000e+00
    outer loop
      vertex  7.800000e+01  9.700000e+01  0.000000e+00
      vertex  6.300000e+01  9.700000e+01  0.000000e+00
      vertex  7.800000e+01  9.700000e+01  4.000000e+00
    endloop
  endfacet
  facet normal  0.000000e+00  1.000000e+00  0.000000e+00
    outer loop
      vertex  7.800000e+01  9.700000e+01  4.000000e+00
      vertex  6.300000e+01  9.700000e+01  0.000000e+00
      vertex  6.300000e+01  9.700000e+01  4.000000e+00
    endloop
  endfacet
  facet normal  0.000000e+00 -1.000000e+00  -0.000000e+00
    outer loop
      vertex  7.800000e+01  8.300000e+01  0.000000e+00
      vertex  7.800000e+01  8.300000e+01  4.000000e+00
      vertex  6.300000e+01  8.300000e+01  0.000000e+00
    endloop
  endfacet
  facet normal  0.000000e+00 -1.000000e+00  0.000000e+00
    outer loop
      vertex  6.300000e+01  8.300000e+01  0.000000e+00
      vertex  7.800000e+01  8.300000e+01  4.000000e+00
      vertex  6.300000e+01  8.300000e+01  4.000000e+00
    endloop
  endfacet
  facet normal -9.999999e-01  0.000000e+00  0.000000e+00
    outer loop
      vertex -6.300000e+01  8.300000e+01  4.000000e+00
      vertex -6.300000e+01  8.300000e+01  0.000000e+00
      vertex -6.300000e+01 -8.300000e+01  4.000000e+00
    endloop
  endfacet
  facet normal -9.999999e-01  0.000000e+00  0.000000e+00
    outer loop
      vertex -6.300000e+01 -8.300000e+01  4.000000e+00
      vertex -6.300000e+01  8.300000e+01  0.000000e+00
      vertex -6.300000e+01 -8.300000e+01  0.000000e+00
    endloop
  endfacet
  facet normal -1.000000e+00  0.000000e+00  0.000000e+00
    outer loop
      vertex -6.300000e+01  1.180000e+02  4.000000e+00
      vertex -6.300000e+01  1.180000e+02  0.000000e+00
      vertex -6.300000e+01  9.700000e+01  4.000000e+00
    endloop
  endfacet
  facet normal -1.000000e+00  0.000000e+00  0.000000e+00
    outer loop
      vertex -6.300000e+01  9.700000e+01  4.000000e+00
      vertex -6.300000e+01  1.180000e+02  0.000000e+00
      vertex -6.300000e+01  9.700000e+01  0.000000e+00
    endloop
  endfacet
  facet normal  9.999999e-01  0.000000e+00  0.000000e+00
    outer loop
      vertex  6.300000e+01 -8.300000e+01  4.000000e+00
      vertex  6.300000e+01 -8.300000e+01  0.000000e+00
      vertex  6.300000e+01  8.300000e+01  4.000000e+00
    endloop
  endfacet
  facet normal  9.999999e-01  0.000000e+00  0.000000e+00
    outer loop
      vertex  6.300000e+01  8.300000e+01  4.000000e+00
      vertex  6.300000e+01 -8.300000e+01  0.000000e+00
      vertex  6.300000e+01  8.300000e+01  0.000000e+00
    endloop
  endfacet
  facet normal  1.000000e+00  0.000000e+00  0.000000e+00
    outer loop
      vertex  6.300000e+01  9.700000e+01  4.000000e+00
      vertex  6.300000e+01  9.700000e+01  0.000000e+00
      vertex  6.300000e+01  1.180000e+02  4.000000e+00
    endloop
  endfacet
  facet normal  1.000000e+00  0.000000e+00  0.000000e+00
    outer loop
      vertex  6.300000e+01  1.180000e+02  4.000000e+00
      vertex  6.300000e+01  9.700000e+01  0.000000e+00
      vertex  6.300000e+01  1.180000e+02  0.000000e+00
    endloop
  endfacet
  facet normal -1.000000e+00  0.000000e+00  0.000000e+00
    outer loop
      vertex -7.800000e+01  8.300000e+01  0.000000e+00
      vertex -7.800000e+01  8.300000e+01  4.000000e+00
      vertex -7.800000e+01  9.700000e+01  0.000000e+00
    endloop
  endfacet
  facet normal -1.000000e+00  0.000000e+00  0.000000e+00
    outer loop
      vertex -7.800000e+01  9.700000e+01  0.000000e+00
      vertex -7.800000e+01  8.300000e+01  4.000000e+00
      vertex -7.800000e+01  9.700000e+01  4.000000e+00
    endloop
  endfacet
  facet normal  1.000000e+00  0.000000e+00  0.000000e+00
    outer loop
      vertex  7.800000e+01  8.300000e+01  0.000000e+00
      vertex  7.800000e+01  9.700000e+01  0.000000e+00
      vertex  7.800000e+01  8.300000e+01  4.000000e+00
    endloop
  endfacet
  facet normal  1.000000e+00  -0.000000e+00  0.000000e+00
    outer loop
      vertex  7.800000e+01  8.300000e+01  4.000000e+00
      vertex  7.800000e+01  9.700000e+01  0.000000e+00
      vertex  7.800000e+01  9.700000e+01  4.000000e+00
    endloop
  endfacet
  facet normal  0.000000e+00  1.000000e+00  0.000000e+00
    outer loop
      vertex -6.300000e+01 -8.300000e+01  0.000000e+00
      vertex -7.800000e+01 -8.300000e+01  0.000000e+00
      vertex -6.300000e+01 -8.300000e+01  4.000000e+00
    endloop
  endfacet
  facet normal  0.000000e+00  1.000000e+00  0.000000e+00
    outer loop
      vertex -6.300000e+01 -8.300000e+01  4.000000e+00
      vertex -7.800000e+01 -8.300000e+01  0.000000e+00
      vertex -7.800000e+01 -8.300000e+01  4.000000e+00
    endloop
  endfacet
  facet normal  0.000000e+00 -1.000000e+00  -0.000000e+00
    outer loop
      vertex -6.300000e+01 -9.700000e+01  0.000000e+00
      vertex -6.300000e+01 -9.700000e+01  4.000000e+00
      vertex -7.800000e+01 -9.700000e+01  0.000000e+00
    endloop
  endfacet
  facet normal  0.000000e+00 -1.000000e+00  0.000000e+00
    outer loop
      vertex -7.800000e+01 -9.700000e+01  0.000000e+00
      vertex -6.300000e+01 -9.700000e+01  4.000000e+00
      vertex -7.800000e+01 -9.700000e+01  4.000000e+00
    endloop
  endfacet
  facet normal  0.000000e+00 -1.000000e+00  -0.000000e+00
    outer loop
      vertex  7.800000e+01 -9.700000e+01  0.000000e+00
      vertex  7.800000e+01 -9.700000e+01  4.000000e+00
      vertex  6.300000e+01 -9.700000e+01  0.000000e+00
    endloop
  endfacet
  facet normal  0.000000e+00 -1.000000e+00  0.000000e+00
    outer loop
      vertex  6.300000e+01 -9.700000e+01  0.000000e+00
      vertex  7.800000e+01 -9.700000e+01  4.000000e+00
      vertex  6.300000e+01 -9.700000e+01  4.000000e+00
    endloop
  endfacet
  facet normal  0.000000e+00  1.000000e+00  0.000000e+00
    outer loop
      vertex  7.800000e+01 -8.300000e+01  0.000000e+00
      vertex  6.300000e+01 -8.300000e+01  0.000000e+00
      vertex  7.800000e+01 -8.300000e+01  4.000000e+00
    endloop
  endfacet
  facet normal  0.000000e+00  1.000000e+00  0.000000e+00
    outer loop
      vertex  7.800000e+01 -8.300000e+01  4.000000e+00
      vertex  6.300000e+01 -8.300000e+01  0.000000e+00
      vertex  6.300000e+01 -8.300000e+01  4.000000e+00
    endloop
  endfacet
  facet normal -1.000000e+00  0.000000e+00  0.000000e+00
    outer loop
      vertex -7.800000e+01 -9.700000e+01  0.000000e+00
      vertex -7.800000e+01 -9.700000e+01  4.000000e+00
      vertex -7.800000e+01 -8.300000e+01  0.000000e+00
    endloop
  endfacet
  facet normal -1.000000e+00  0.000000e+00  0.000000e+00
    outer loop
      vertex -7.800000e+01 -8.300000e+01  0.000000e+00
      vertex -7.800000e+01 -9.700000e+01  4.000000e+00
      vertex -7.800000e+01 -8.300000e+01  4.000000e+00
    endloop
  endfacet
  facet normal  1.000000e+00  0.000000e+00  0.000000e+00
    outer loop
      vertex  7.800000e+01 -9.700000e+01  0.000000e+00
      vertex  7.800000e+01 -8.300000e+01  0.000000e+00
      vertex  7.800000e+01 -9.700000e+01  4.000000e+00
    endloop
  endfacet
  facet normal  1.000000e+00  -0.000000e+00  0.000000e+00
    outer loop
      vertex  7.800000e+01 -9.700000e+01  4.000000e+00
      vertex  7.800000e+01 -8.300000e+01  0.000000e+00
      vertex  7.800000e+01 -8.300000e+01  4.000000e+00
    endloop
  endfacet
  facet normal -9.999999e-01  -0.000000e+00  0.000000e+00
    outer loop
      vertex -5.850000e+01 -1.135000e+02  6.000000e+00
      vertex -5.850000e+01  1.135000e+02  6.000000e+00
      vertex -5.850000e+01 -1.135000e+02  4.000000e+00
    endloop
  endfacet
  facet normal -9.999999e-01  0.000000e+00  0.000000e+00
    outer loop
      vertex -5.850000e+01 -1.135000e+02  4.000000e+00
      vertex -5.850000e+01  1.135000e+02  6.000000e+00
      vertex -5.850000e+01  1.135000e+02  4.000000e+00
    endloop
  endfacet
  facet normal  0.000000e+00  1.000000e+00  0.000000e+00
    outer loop
      vertex -5.850000e+01  1.135000e+02  6.000000e+00
      vertex  5.850000e+01  1.135000e+02  6.000000e+00
      vertex -5.850000e+01  1.135000e+02  4.000000e+00
    endloop
  endfacet
  facet normal  0.000000e+00  1.000000e+00  0.000000e+00
    outer loop
      vertex -5.850000e+01  1.135000e+02  4.000000e+00
      vertex  5.850000e+01  1.135000e+02  6.000000e+00
      vertex  5.850000e+01  1.135000e+02  4.000000e+00
    endloop
  endfacet
  facet normal  9.999999e-01  -0.000000e+00  0.000000e+00
    outer loop
      vertex  5.850000e+01  1.135000e+02  6.000000e+00
      vertex  5.850000e+01 -1.135000e+02  6.000000e+00
      vertex  5.850000e+01  1.135000e+02  4.000000e+00
    endloop
  endfacet
  facet normal  9.999999e-01  0.000000e+00  0.000000e+00
    outer loop
      vertex  5.850000e+01  1.135000e+02  4.000000e+00
      vertex  5.850000e+01 -1.135000e+02  6.000000e+00
      vertex  5.850000e+01 -1.135000e+02  4.000000e+00
    endloop
  endfacet
  facet normal  0.000000e+00 -1.000000e+00  0.000000e+00
    outer loop
      vertex  5.850000e+01 -1.135000e+02  6.000000e+00
      vertex -5.850000e+01 -1.135000e+02  6.000000e+00
      vertex  5.850000e+01 -1.135000e+02  4.000000e+00
    endloop
  endfacet
  facet normal  0.000000e+00 -1.000000e+00  0.000000e+00
    outer loop
      vertex  5.850000e+01 -1.135000e+02  4.000000e+00
      vertex -5.850000e+01 -1.135000e+02  6.000000e+00
      vertex -5.850000e+01 -1.135000e+02  4.000000e+00
    endloop
  endfacet
  facet normal  0.000000e+00  0.000000e+00  9.999999e-01
    outer loop
      vertex -5.850000e+01 -1.135000e+02  6.000000e+00
      vertex  5.850000e+01 -1.135000e+02  6.000000e+00
      vertex -5.850000e+01  1.135000e+02  6.000000e+00
    endloop
  endfacet
  facet normal  -0.000000e+00  0.000000e+00  9.999999e-01
    outer loop
      vertex -5.850000e+01  1.135000e+02  6.000000e+00
      vertex  5.850000e+01 -1.135000e+02  6.000000e+00
      vertex  5.850000e+01  1.135000e+02  6.000000e+00
    endloop
  endfacet
  facet normal  0.000000e+00  1.000000e+00  0.000000e+00
    outer loop
      vertex -6.300000e+01  1.180000e+02  4.000000e+00
      vertex  6.300000e+01  1.180000e+02  4.000000e+00
      vertex -6.300000e+01  1.180000e+02  0.000000e+00
    endloop
  endfacet
  facet normal  0.000000e+00  1.000000e+00  0.000000e+00
    outer loop
      vertex -6.300000e+01  1.180000e+02  0.000000e+00
      vertex  6.300000e+01  1.180000e+02  4.000000e+00
      vertex  6.300000e+01  1.180000e+02  0.000000e+00
    endloop
  endfacet
endsolid CATIA STL
