solid CATIA STL
  facet normal  -0.000000e+00  0.000000e+00 -1.000000e+00
    outer loop
      vertex  5.000000e+00  2.925000e+01  0.000000e+00
      vertex  5.000000e+00  6.750000e+00  0.000000e+00
      vertex  3.762563e+00  6.237437e+00  0.000000e+00
    endloop
  endfacet
  facet normal  0.000000e+00  0.000000e+00 -9.999999e-01
    outer loop
      vertex  1.310000e+02  6.750000e+00  0.000000e+00
      vertex  1.310000e+02  2.925000e+01  0.000000e+00
      vertex  1.322374e+02  6.237437e+00  0.000000e+00
    endloop
  endfacet
  facet normal  -0.000000e+00  0.000000e+00 -1.000000e+00
    outer loop
      vertex  0.000000e+00  3.600000e+01  0.000000e+00
      vertex  1.360000e+02  3.600000e+01  0.000000e+00
      vertex  1.310000e+02  3.275000e+01  0.000000e+00
    endloop
  endfacet
  facet normal  0.000000e+00  0.000000e+00 -1.000000e+00
    outer loop
      vertex  0.000000e+00  3.600000e+01  0.000000e+00
      vertex  1.310000e+02  3.275000e+01  0.000000e+00
      vertex  5.000000e+00  3.275000e+01  0.000000e+00
    endloop
  endfacet
  facet normal  -0.000000e+00  0.000000e+00 -1.000000e+00
    outer loop
      vertex  0.000000e+00  3.600000e+01  0.000000e+00
      vertex  5.000000e+00  3.275000e+01  0.000000e+00
      vertex  3.762563e+00  3.223744e+01  0.000000e+00
    endloop
  endfacet
  facet normal  -0.000000e+00  0.000000e+00 -9.999999e-01
    outer loop
      vertex  0.000000e+00  3.600000e+01  0.000000e+00
      vertex  3.762563e+00  3.223744e+01  0.000000e+00
      vertex  3.250000e+00  3.100000e+01  0.000000e+00
    endloop
  endfacet
  facet normal  -0.000000e+00  0.000000e+00 -1.000000e+00
    outer loop
      vertex  0.000000e+00  3.600000e+01  0.000000e+00
      vertex  3.250000e+00  3.100000e+01  0.000000e+00
      vertex  0.000000e+00  0.000000e+00  0.000000e+00
    endloop
  endfacet
  facet normal  0.000000e+00  -0.000000e+00 -1.000000e+00
    outer loop
      vertex  0.000000e+00  0.000000e+00  0.000000e+00
      vertex  3.250000e+00  3.100000e+01  0.000000e+00
      vertex  3.762563e+00  2.976256e+01  0.000000e+00
    endloop
  endfacet
  facet normal  0.000000e+00  -0.000000e+00 -1.000000e+00
    outer loop
      vertex  0.000000e+00  0.000000e+00  0.000000e+00
      vertex  3.762563e+00  2.976256e+01  0.000000e+00
      vertex  5.000000e+00  2.925000e+01  0.000000e+00
    endloop
  endfacet
  facet normal  0.000000e+00  0.000000e+00 -1.000000e+00
    outer loop
      vertex  0.000000e+00  0.000000e+00  0.000000e+00
      vertex  5.000000e+00  2.925000e+01  0.000000e+00
      vertex  3.762563e+00  6.237437e+00  0.000000e+00
    endloop
  endfacet
  facet normal  0.000000e+00  0.000000e+00 -1.000000e+00
    outer loop
      vertex  0.000000e+00  0.000000e+00  0.000000e+00
      vertex  3.762563e+00  6.237437e+00  0.000000e+00
      vertex  3.250000e+00  5.000000e+00  0.000000e+00
    endloop
  endfacet
  facet normal  0.000000e+00  -0.000000e+00 -1.000000e+00
    outer loop
      vertex  0.000000e+00  0.000000e+00  0.000000e+00
      vertex  3.250000e+00  5.000000e+00  0.000000e+00
      vertex  3.762563e+00  3.762563e+00  0.000000e+00
    endloop
  endfacet
  facet normal  0.000000e+00  -0.000000e+00 -1.000000e+00
    outer loop
      vertex  0.000000e+00  0.000000e+00  0.000000e+00
      vertex  3.762563e+00  3.762563e+00  0.000000e+00
      vertex  5.000000e+00  3.250000e+00  0.000000e+00
    endloop
  endfacet
  facet normal  0.000000e+00  -0.000000e+00 -1.000000e+00
    outer loop
      vertex  0.000000e+00  0.000000e+00  0.000000e+00
      vertex  5.000000e+00  3.250000e+00  0.000000e+00
      vertex  1.310000e+02  3.250000e+00  0.000000e+00
    endloop
  endfacet
  facet normal  0.000000e+00  -0.000000e+00 -1.000000e+00
    outer loop
      vertex  0.000000e+00  0.000000e+00  0.000000e+00
      vertex  1.310000e+02  3.250000e+00  0.000000e+00
      vertex  1.360000e+02  0.000000e+00  0.000000e+00
    endloop
  endfacet
  facet normal  0.000000e+00  0.000000e+00 -1.000000e+00
    outer loop
      vertex  1.360000e+02  0.000000e+00  0.000000e+00
      vertex  1.310000e+02  3.250000e+00  0.000000e+00
      vertex  1.322374e+02  3.762563e+00  0.000000e+00
    endloop
  endfacet
  facet normal  0.000000e+00  0.000000e+00 -9.999999e-01
    outer loop
      vertex  1.360000e+02  0.000000e+00  0.000000e+00
      vertex  1.322374e+02  3.762563e+00  0.000000e+00
      vertex  1.327500e+02  5.000000e+00  0.000000e+00
    endloop
  endfacet
  facet normal  0.000000e+00  0.000000e+00 -1.000000e+00
    outer loop
      vertex  1.360000e+02  0.000000e+00  0.000000e+00
      vertex  1.327500e+02  5.000000e+00  0.000000e+00
      vertex  1.322374e+02  6.237437e+00  0.000000e+00
    endloop
  endfacet
  facet normal  0.000000e+00  0.000000e+00 -1.000000e+00
    outer loop
      vertex  1.360000e+02  0.000000e+00  0.000000e+00
      vertex  1.322374e+02  6.237437e+00  0.000000e+00
      vertex  1.310000e+02  2.925000e+01  0.000000e+00
    endloop
  endfacet
  facet normal  0.000000e+00  0.000000e+00 -1.000000e+00
    outer loop
      vertex  1.360000e+02  0.000000e+00  0.000000e+00
      vertex  1.310000e+02  2.925000e+01  0.000000e+00
      vertex  1.322374e+02  2.976256e+01  0.000000e+00
    endloop
  endfacet
  facet normal  0.000000e+00  0.000000e+00 -1.000000e+00
    outer loop
      vertex  1.360000e+02  0.000000e+00  0.000000e+00
      vertex  1.322374e+02  2.976256e+01  0.000000e+00
      vertex  1.327500e+02  3.100000e+01  0.000000e+00
    endloop
  endfacet
  facet normal  0.000000e+00  0.000000e+00 -1.000000e+00
    outer loop
      vertex  1.360000e+02  3.600000e+01  0.000000e+00
      vertex  1.360000e+02  0.000000e+00  0.000000e+00
      vertex  1.327500e+02  3.100000e+01  0.000000e+00
    endloop
  endfacet
  facet normal  0.000000e+00  0.000000e+00 -1.000000e+00
    outer loop
      vertex  1.360000e+02  3.600000e+01  0.000000e+00
      vertex  1.327500e+02  3.100000e+01  0.000000e+00
      vertex  1.322374e+02  3.223744e+01  0.000000e+00
    endloop
  endfacet
  facet normal  0.000000e+00  0.000000e+00 -1.000000e+00
    outer loop
      vertex  1.360000e+02  3.600000e+01  0.000000e+00
      vertex  1.322374e+02  3.223744e+01  0.000000e+00
      vertex  1.310000e+02  3.275000e+01  0.000000e+00
    endloop
  endfacet
  facet normal  0.000000e+00  0.000000e+00 -9.999999e-01
    outer loop
      vertex  1.310000e+02  2.925000e+01  0.000000e+00
      vertex  6.237437e+00  2.976256e+01  0.000000e+00
      vertex  1.297626e+02  2.976256e+01  0.000000e+00
    endloop
  endfacet
  facet normal  0.000000e+00  0.000000e+00 -9.999999e-01
    outer loop
      vertex  1.297626e+02  2.976256e+01  0.000000e+00
      vertex  6.237437e+00  2.976256e+01  0.000000e+00
      vertex  6.750000e+00  3.100000e+01  0.000000e+00
    endloop
  endfacet
  facet normal  0.000000e+00  0.000000e+00 -1.000000e+00
    outer loop
      vertex  1.297626e+02  2.976256e+01  0.000000e+00
      vertex  6.750000e+00  3.100000e+01  0.000000e+00
      vertex  1.292500e+02  3.100000e+01  0.000000e+00
    endloop
  endfacet
  facet normal  0.000000e+00  0.000000e+00 -1.000000e+00
    outer loop
      vertex  1.292500e+02  3.100000e+01  0.000000e+00
      vertex  6.750000e+00  3.100000e+01  0.000000e+00
      vertex  6.237437e+00  3.223744e+01  0.000000e+00
    endloop
  endfacet
  facet normal  0.000000e+00  0.000000e+00 -9.999999e-01
    outer loop
      vertex  1.292500e+02  3.100000e+01  0.000000e+00
      vertex  6.237437e+00  3.223744e+01  0.000000e+00
      vertex  1.297626e+02  3.223744e+01  0.000000e+00
    endloop
  endfacet
  facet normal  0.000000e+00  0.000000e+00 -1.000000e+00
    outer loop
      vertex  1.297626e+02  3.223744e+01  0.000000e+00
      vertex  6.237437e+00  3.223744e+01  0.000000e+00
      vertex  5.000000e+00  3.275000e+01  0.000000e+00
    endloop
  endfacet
  facet normal  0.000000e+00  0.000000e+00 -1.000000e+00
    outer loop
      vertex  1.297626e+02  3.223744e+01  0.000000e+00
      vertex  5.000000e+00  3.275000e+01  0.000000e+00
      vertex  1.310000e+02  3.275000e+01  0.000000e+00
    endloop
  endfacet
  facet normal  0.000000e+00  0.000000e+00 -1.000000e+00
    outer loop
      vertex  6.237437e+00  2.976256e+01  0.000000e+00
      vertex  1.310000e+02  2.925000e+01  0.000000e+00
      vertex  5.000000e+00  2.925000e+01  0.000000e+00
    endloop
  endfacet
  facet normal  0.000000e+00  0.000000e+00 -1.000000e+00
    outer loop
      vertex  5.000000e+00  2.925000e+01  0.000000e+00
      vertex  1.310000e+02  2.925000e+01  0.000000e+00
      vertex  1.310000e+02  6.750000e+00  0.000000e+00
    endloop
  endfacet
  facet normal  0.000000e+00  0.000000e+00 -1.000000e+00
    outer loop
      vertex  5.000000e+00  2.925000e+01  0.000000e+00
      vertex  1.310000e+02  6.750000e+00  0.000000e+00
      vertex  5.000000e+00  6.750000e+00  0.000000e+00
    endloop
  endfacet
  facet normal  0.000000e+00  0.000000e+00 -1.000000e+00
    outer loop
      vertex  5.000000e+00  6.750000e+00  0.000000e+00
      vertex  1.310000e+02  6.750000e+00  0.000000e+00
      vertex  1.297626e+02  6.237437e+00  0.000000e+00
    endloop
  endfacet
  facet normal  0.000000e+00  0.000000e+00 -1.000000e+00
    outer loop
      vertex  5.000000e+00  6.750000e+00  0.000000e+00
      vertex  1.297626e+02  6.237437e+00  0.000000e+00
      vertex  6.237437e+00  6.237437e+00  0.000000e+00
    endloop
  endfacet
  facet normal  0.000000e+00  0.000000e+00 -1.000000e+00
    outer loop
      vertex  6.237437e+00  6.237437e+00  0.000000e+00
      vertex  1.297626e+02  6.237437e+00  0.000000e+00
      vertex  1.292500e+02  5.000000e+00  0.000000e+00
    endloop
  endfacet
  facet normal  0.000000e+00  0.000000e+00 -1.000000e+00
    outer loop
      vertex  6.237437e+00  6.237437e+00  0.000000e+00
      vertex  1.292500e+02  5.000000e+00  0.000000e+00
      vertex  6.750000e+00  5.000000e+00  0.000000e+00
    endloop
  endfacet
  facet normal  0.000000e+00  0.000000e+00 -1.000000e+00
    outer loop
      vertex  6.750000e+00  5.000000e+00  0.000000e+00
      vertex  1.292500e+02  5.000000e+00  0.000000e+00
      vertex  1.297626e+02  3.762563e+00  0.000000e+00
    endloop
  endfacet
  facet normal  0.000000e+00  0.000000e+00 -1.000000e+00
    outer loop
      vertex  6.750000e+00  5.000000e+00  0.000000e+00
      vertex  1.297626e+02  3.762563e+00  0.000000e+00
      vertex  6.237437e+00  3.762563e+00  0.000000e+00
    endloop
  endfacet
  facet normal  0.000000e+00  0.000000e+00 -1.000000e+00
    outer loop
      vertex  6.237437e+00  3.762563e+00  0.000000e+00
      vertex  1.297626e+02  3.762563e+00  0.000000e+00
      vertex  1.310000e+02  3.250000e+00  0.000000e+00
    endloop
  endfacet
  facet normal  0.000000e+00  0.000000e+00 -1.000000e+00
    outer loop
      vertex  6.237437e+00  3.762563e+00  0.000000e+00
      vertex  1.310000e+02  3.250000e+00  0.000000e+00
      vertex  5.000000e+00  3.250000e+00  0.000000e+00
    endloop
  endfacet
  facet normal  0.000000e+00  -0.000000e+00  1.000000e+00
    outer loop
      vertex  3.762563e+00  6.237437e+00  4.000000e+00
      vertex  5.000000e+00  6.750000e+00  4.000000e+00
      vertex  5.000000e+00  2.925000e+01  4.000000e+00
    endloop
  endfacet
  facet normal  0.000000e+00  0.000000e+00  9.999999e-01
    outer loop
      vertex  1.322374e+02  6.237437e+00  4.000000e+00
      vertex  1.310000e+02  2.925000e+01  4.000000e+00
      vertex  1.310000e+02  6.750000e+00  4.000000e+00
    endloop
  endfacet
  facet normal  0.000000e+00  0.000000e+00  1.000000e+00
    outer loop
      vertex  0.000000e+00  3.600000e+01  4.000000e+00
      vertex  0.000000e+00  0.000000e+00  4.000000e+00
      vertex  3.250000e+00  3.100000e+01  4.000000e+00
    endloop
  endfacet
  facet normal  0.000000e+00  -0.000000e+00  9.999999e-01
    outer loop
      vertex  0.000000e+00  3.600000e+01  4.000000e+00
      vertex  3.250000e+00  3.100000e+01  4.000000e+00
      vertex  3.762563e+00  3.223744e+01  4.000000e+00
    endloop
  endfacet
  facet normal  0.000000e+00  -0.000000e+00  1.000000e+00
    outer loop
      vertex  0.000000e+00  3.600000e+01  4.000000e+00
      vertex  3.762563e+00  3.223744e+01  4.000000e+00
      vertex  5.000000e+00  3.275000e+01  4.000000e+00
    endloop
  endfacet
  facet normal  0.000000e+00  -0.000000e+00  1.000000e+00
    outer loop
      vertex  0.000000e+00  3.600000e+01  4.000000e+00
      vertex  5.000000e+00  3.275000e+01  4.000000e+00
      vertex  1.310000e+02  3.275000e+01  4.000000e+00
    endloop
  endfacet
  facet normal  0.000000e+00  -0.000000e+00  1.000000e+00
    outer loop
      vertex  0.000000e+00  3.600000e+01  4.000000e+00
      vertex  1.310000e+02  3.275000e+01  4.000000e+00
      vertex  1.360000e+02  3.600000e+01  4.000000e+00
    endloop
  endfacet
  facet normal  0.000000e+00  0.000000e+00  1.000000e+00
    outer loop
      vertex  0.000000e+00  0.000000e+00  4.000000e+00
      vertex  1.360000e+02  0.000000e+00  4.000000e+00
      vertex  1.310000e+02  3.250000e+00  4.000000e+00
    endloop
  endfacet
  facet normal  0.000000e+00  0.000000e+00  1.000000e+00
    outer loop
      vertex  0.000000e+00  0.000000e+00  4.000000e+00
      vertex  1.310000e+02  3.250000e+00  4.000000e+00
      vertex  5.000000e+00  3.250000e+00  4.000000e+00
    endloop
  endfacet
  facet normal  0.000000e+00  0.000000e+00  1.000000e+00
    outer loop
      vertex  0.000000e+00  0.000000e+00  4.000000e+00
      vertex  5.000000e+00  3.250000e+00  4.000000e+00
      vertex  3.762563e+00  3.762563e+00  4.000000e+00
    endloop
  endfacet
  facet normal  0.000000e+00  0.000000e+00  1.000000e+00
    outer loop
      vertex  0.000000e+00  0.000000e+00  4.000000e+00
      vertex  3.762563e+00  3.762563e+00  4.000000e+00
      vertex  3.250000e+00  5.000000e+00  4.000000e+00
    endloop
  endfacet
  facet normal  0.000000e+00  -0.000000e+00  1.000000e+00
    outer loop
      vertex  0.000000e+00  0.000000e+00  4.000000e+00
      vertex  3.250000e+00  5.000000e+00  4.000000e+00
      vertex  3.762563e+00  6.237437e+00  4.000000e+00
    endloop
  endfacet
  facet normal  0.000000e+00  -0.000000e+00  1.000000e+00
    outer loop
      vertex  0.000000e+00  0.000000e+00  4.000000e+00
      vertex  3.762563e+00  6.237437e+00  4.000000e+00
      vertex  5.000000e+00  2.925000e+01  4.000000e+00
    endloop
  endfacet
  facet normal  0.000000e+00  0.000000e+00  1.000000e+00
    outer loop
      vertex  0.000000e+00  0.000000e+00  4.000000e+00
      vertex  5.000000e+00  2.925000e+01  4.000000e+00
      vertex  3.762563e+00  2.976256e+01  4.000000e+00
    endloop
  endfacet
  facet normal  0.000000e+00  0.000000e+00  1.000000e+00
    outer loop
      vertex  0.000000e+00  0.000000e+00  4.000000e+00
      vertex  3.762563e+00  2.976256e+01  4.000000e+00
      vertex  3.250000e+00  3.100000e+01  4.000000e+00
    endloop
  endfacet
  facet normal  0.000000e+00  0.000000e+00  1.000000e+00
    outer loop
      vertex  1.360000e+02  0.000000e+00  4.000000e+00
      vertex  1.327500e+02  3.100000e+01  4.000000e+00
      vertex  1.322374e+02  2.976256e+01  4.000000e+00
    endloop
  endfacet
  facet normal  0.000000e+00  0.000000e+00  1.000000e+00
    outer loop
      vertex  1.360000e+02  0.000000e+00  4.000000e+00
      vertex  1.322374e+02  2.976256e+01  4.000000e+00
      vertex  1.310000e+02  2.925000e+01  4.000000e+00
    endloop
  endfacet
  facet normal  0.000000e+00  0.000000e+00  1.000000e+00
    outer loop
      vertex  1.360000e+02  0.000000e+00  4.000000e+00
      vertex  1.310000e+02  2.925000e+01  4.000000e+00
      vertex  1.322374e+02  6.237437e+00  4.000000e+00
    endloop
  endfacet
  facet normal  0.000000e+00  0.000000e+00  1.000000e+00
    outer loop
      vertex  1.360000e+02  0.000000e+00  4.000000e+00
      vertex  1.322374e+02  6.237437e+00  4.000000e+00
      vertex  1.327500e+02  5.000000e+00  4.000000e+00
    endloop
  endfacet
  facet normal  0.000000e+00  0.000000e+00  9.999999e-01
    outer loop
      vertex  1.360000e+02  0.000000e+00  4.000000e+00
      vertex  1.327500e+02  5.000000e+00  4.000000e+00
      vertex  1.322374e+02  3.762563e+00  4.000000e+00
    endloop
  endfacet
  facet normal  0.000000e+00  0.000000e+00  1.000000e+00
    outer loop
      vertex  1.360000e+02  0.000000e+00  4.000000e+00
      vertex  1.322374e+02  3.762563e+00  4.000000e+00
      vertex  1.310000e+02  3.250000e+00  4.000000e+00
    endloop
  endfacet
  facet normal  -0.000000e+00  0.000000e+00  1.000000e+00
    outer loop
      vertex  1.360000e+02  3.600000e+01  4.000000e+00
      vertex  1.310000e+02  3.275000e+01  4.000000e+00
      vertex  1.322374e+02  3.223744e+01  4.000000e+00
    endloop
  endfacet
  facet normal  -0.000000e+00  0.000000e+00  1.000000e+00
    outer loop
      vertex  1.360000e+02  3.600000e+01  4.000000e+00
      vertex  1.322374e+02  3.223744e+01  4.000000e+00
      vertex  1.327500e+02  3.100000e+01  4.000000e+00
    endloop
  endfacet
  facet normal  -0.000000e+00  0.000000e+00  1.000000e+00
    outer loop
      vertex  1.360000e+02  3.600000e+01  4.000000e+00
      vertex  1.327500e+02  3.100000e+01  4.000000e+00
      vertex  1.360000e+02  0.000000e+00  4.000000e+00
    endloop
  endfacet
  facet normal  -0.000000e+00  0.000000e+00  1.000000e+00
    outer loop
      vertex  1.310000e+02  3.275000e+01  4.000000e+00
      vertex  5.000000e+00  3.275000e+01  4.000000e+00
      vertex  1.297626e+02  3.223744e+01  4.000000e+00
    endloop
  endfacet
  facet normal  0.000000e+00  0.000000e+00  1.000000e+00
    outer loop
      vertex  1.297626e+02  3.223744e+01  4.000000e+00
      vertex  5.000000e+00  3.275000e+01  4.000000e+00
      vertex  6.237437e+00  3.223744e+01  4.000000e+00
    endloop
  endfacet
  facet normal  -0.000000e+00  0.000000e+00  9.999999e-01
    outer loop
      vertex  1.297626e+02  3.223744e+01  4.000000e+00
      vertex  6.237437e+00  3.223744e+01  4.000000e+00
      vertex  1.292500e+02  3.100000e+01  4.000000e+00
    endloop
  endfacet
  facet normal  0.000000e+00  0.000000e+00  1.000000e+00
    outer loop
      vertex  1.292500e+02  3.100000e+01  4.000000e+00
      vertex  6.237437e+00  3.223744e+01  4.000000e+00
      vertex  6.750000e+00  3.100000e+01  4.000000e+00
    endloop
  endfacet
  facet normal  -0.000000e+00  0.000000e+00  1.000000e+00
    outer loop
      vertex  1.292500e+02  3.100000e+01  4.000000e+00
      vertex  6.750000e+00  3.100000e+01  4.000000e+00
      vertex  1.297626e+02  2.976256e+01  4.000000e+00
    endloop
  endfacet
  facet normal  0.000000e+00  0.000000e+00  9.999999e-01
    outer loop
      vertex  1.297626e+02  2.976256e+01  4.000000e+00
      vertex  6.750000e+00  3.100000e+01  4.000000e+00
      vertex  6.237437e+00  2.976256e+01  4.000000e+00
    endloop
  endfacet
  facet normal  -0.000000e+00  0.000000e+00  9.999999e-01
    outer loop
      vertex  1.297626e+02  2.976256e+01  4.000000e+00
      vertex  6.237437e+00  2.976256e+01  4.000000e+00
      vertex  1.310000e+02  2.925000e+01  4.000000e+00
    endloop
  endfacet
  facet normal  0.000000e+00  0.000000e+00  1.000000e+00
    outer loop
      vertex  1.310000e+02  2.925000e+01  4.000000e+00
      vertex  6.237437e+00  2.976256e+01  4.000000e+00
      vertex  5.000000e+00  2.925000e+01  4.000000e+00
    endloop
  endfacet
  facet normal  -0.000000e+00  0.000000e+00  1.000000e+00
    outer loop
      vertex  1.310000e+02  2.925000e+01  4.000000e+00
      vertex  5.000000e+00  2.925000e+01  4.000000e+00
      vertex  1.310000e+02  6.750000e+00  4.000000e+00
    endloop
  endfacet
  facet normal  0.000000e+00  0.000000e+00  1.000000e+00
    outer loop
      vertex  1.310000e+02  6.750000e+00  4.000000e+00
      vertex  5.000000e+00  2.925000e+01  4.000000e+00
      vertex  5.000000e+00  6.750000e+00  4.000000e+00
    endloop
  endfacet
  facet normal  -0.000000e+00  0.000000e+00  1.000000e+00
    outer loop
      vertex  1.310000e+02  6.750000e+00  4.000000e+00
      vertex  5.000000e+00  6.750000e+00  4.000000e+00
      vertex  1.297626e+02  6.237437e+00  4.000000e+00
    endloop
  endfacet
  facet normal  0.000000e+00  0.000000e+00  1.000000e+00
    outer loop
      vertex  1.297626e+02  6.237437e+00  4.000000e+00
      vertex  5.000000e+00  6.750000e+00  4.000000e+00
      vertex  6.237437e+00  6.237437e+00  4.000000e+00
    endloop
  endfacet
  facet normal  -0.000000e+00  0.000000e+00  1.000000e+00
    outer loop
      vertex  1.297626e+02  6.237437e+00  4.000000e+00
      vertex  6.237437e+00  6.237437e+00  4.000000e+00
      vertex  1.292500e+02  5.000000e+00  4.000000e+00
    endloop
  endfacet
  facet normal  0.000000e+00  0.000000e+00  1.000000e+00
    outer loop
      vertex  1.292500e+02  5.000000e+00  4.000000e+00
      vertex  6.237437e+00  6.237437e+00  4.000000e+00
      vertex  6.750000e+00  5.000000e+00  4.000000e+00
    endloop
  endfacet
  facet normal  -0.000000e+00  0.000000e+00  1.000000e+00
    outer loop
      vertex  1.292500e+02  5.000000e+00  4.000000e+00
      vertex  6.750000e+00  5.000000e+00  4.000000e+00
      vertex  1.297626e+02  3.762563e+00  4.000000e+00
    endloop
  endfacet
  facet normal  0.000000e+00  0.000000e+00  1.000000e+00
    outer loop
      vertex  1.297626e+02  3.762563e+00  4.000000e+00
      vertex  6.750000e+00  5.000000e+00  4.000000e+00
      vertex  6.237437e+00  3.762563e+00  4.000000e+00
    endloop
  endfacet
  facet normal  -0.000000e+00  0.000000e+00  1.000000e+00
    outer loop
      vertex  1.297626e+02  3.762563e+00  4.000000e+00
      vertex  6.237437e+00  3.762563e+00  4.000000e+00
      vertex  1.310000e+02  3.250000e+00  4.000000e+00
    endloop
  endfacet
  facet normal  0.000000e+00  0.000000e+00  1.000000e+00
    outer loop
      vertex  1.310000e+02  3.250000e+00  4.000000e+00
      vertex  6.237437e+00  3.762563e+00  4.000000e+00
      vertex  5.000000e+00  3.250000e+00  4.000000e+00
    endloop
  endfacet
  facet normal -3.826825e-01  9.238800e-01  0.000000e+00
    outer loop
      vertex  1.310000e+02  2.925000e+01  0.000000e+00
      vertex  1.322374e+02  2.976256e+01  4.000000e+00
      vertex  1.322374e+02  2.976256e+01  0.000000e+00
    endloop
  endfacet
  facet normal -9.238808e-01  3.826803e-01  0.000000e+00
    outer loop
      vertex  1.322374e+02  2.976256e+01  0.000000e+00
      vertex  1.322374e+02  2.976256e+01  4.000000e+00
      vertex  1.327500e+02  3.100000e+01  4.000000e+00
    endloop
  endfacet
  facet normal -9.238808e-01  3.826803e-01  0.000000e+00
    outer loop
      vertex  1.322374e+02  2.976256e+01  0.000000e+00
      vertex  1.327500e+02  3.100000e+01  4.000000e+00
      vertex  1.327500e+02  3.100000e+01  0.000000e+00
    endloop
  endfacet
  facet normal -3.826825e-01  9.238800e-01  0.000000e+00
    outer loop
      vertex  1.322374e+02  2.976256e+01  4.000000e+00
      vertex  1.310000e+02  2.925000e+01  0.000000e+00
      vertex  1.310000e+02  2.925000e+01  4.000000e+00
    endloop
  endfacet
  facet normal  3.826825e-01  9.238800e-01  0.000000e+00
    outer loop
      vertex  1.310000e+02  2.925000e+01  4.000000e+00
      vertex  1.310000e+02  2.925000e+01  0.000000e+00
      vertex  1.297626e+02  2.976256e+01  0.000000e+00
    endloop
  endfacet
  facet normal  3.826825e-01  9.238800e-01  -0.000000e+00
    outer loop
      vertex  1.310000e+02  2.925000e+01  4.000000e+00
      vertex  1.297626e+02  2.976256e+01  0.000000e+00
      vertex  1.297626e+02  2.976256e+01  4.000000e+00
    endloop
  endfacet
  facet normal  9.238808e-01  3.826803e-01  0.000000e+00
    outer loop
      vertex  1.297626e+02  2.976256e+01  4.000000e+00
      vertex  1.297626e+02  2.976256e+01  0.000000e+00
      vertex  1.292500e+02  3.100000e+01  0.000000e+00
    endloop
  endfacet
  facet normal  9.238808e-01  3.826803e-01  -0.000000e+00
    outer loop
      vertex  1.297626e+02  2.976256e+01  4.000000e+00
      vertex  1.292500e+02  3.100000e+01  0.000000e+00
      vertex  1.292500e+02  3.100000e+01  4.000000e+00
    endloop
  endfacet
  facet normal  3.826812e-01 -9.238805e-01  0.000000e+00
    outer loop
      vertex  1.310000e+02  3.275000e+01  0.000000e+00
      vertex  1.297626e+02  3.223744e+01  4.000000e+00
      vertex  1.297626e+02  3.223744e+01  0.000000e+00
    endloop
  endfacet
  facet normal  9.238810e-01 -3.826798e-01  0.000000e+00
    outer loop
      vertex  1.297626e+02  3.223744e+01  0.000000e+00
      vertex  1.297626e+02  3.223744e+01  4.000000e+00
      vertex  1.292500e+02  3.100000e+01  4.000000e+00
    endloop
  endfacet
  facet normal  9.238810e-01 -3.826798e-01  0.000000e+00
    outer loop
      vertex  1.297626e+02  3.223744e+01  0.000000e+00
      vertex  1.292500e+02  3.100000e+01  4.000000e+00
      vertex  1.292500e+02  3.100000e+01  0.000000e+00
    endloop
  endfacet
  facet normal  3.826812e-01 -9.238805e-01  0.000000e+00
    outer loop
      vertex  1.297626e+02  3.223744e+01  4.000000e+00
      vertex  1.310000e+02  3.275000e+01  0.000000e+00
      vertex  1.310000e+02  3.275000e+01  4.000000e+00
    endloop
  endfacet
  facet normal -3.826812e-01 -9.238805e-01  -0.000000e+00
    outer loop
      vertex  1.310000e+02  3.275000e+01  4.000000e+00
      vertex  1.310000e+02  3.275000e+01  0.000000e+00
      vertex  1.322374e+02  3.223744e+01  0.000000e+00
    endloop
  endfacet
  facet normal -3.826812e-01 -9.238805e-01  0.000000e+00
    outer loop
      vertex  1.310000e+02  3.275000e+01  4.000000e+00
      vertex  1.322374e+02  3.223744e+01  0.000000e+00
      vertex  1.322374e+02  3.223744e+01  4.000000e+00
    endloop
  endfacet
  facet normal -9.238810e-01 -3.826798e-01  -0.000000e+00
    outer loop
      vertex  1.322374e+02  3.223744e+01  4.000000e+00
      vertex  1.322374e+02  3.223744e+01  0.000000e+00
      vertex  1.327500e+02  3.100000e+01  0.000000e+00
    endloop
  endfacet
  facet normal -9.238810e-01 -3.826798e-01  0.000000e+00
    outer loop
      vertex  1.322374e+02  3.223744e+01  4.000000e+00
      vertex  1.327500e+02  3.100000e+01  0.000000e+00
      vertex  1.327500e+02  3.100000e+01  4.000000e+00
    endloop
  endfacet
  facet normal -3.826821e-01  9.238801e-01  0.000000e+00
    outer loop
      vertex  1.310000e+02  3.250000e+00  0.000000e+00
      vertex  1.322374e+02  3.762563e+00  4.000000e+00
      vertex  1.322374e+02  3.762563e+00  0.000000e+00
    endloop
  endfacet
  facet normal -9.238809e-01  3.826802e-01  0.000000e+00
    outer loop
      vertex  1.322374e+02  3.762563e+00  0.000000e+00
      vertex  1.322374e+02  3.762563e+00  4.000000e+00
      vertex  1.327500e+02  5.000000e+00  4.000000e+00
    endloop
  endfacet
  facet normal -9.238809e-01  3.826802e-01  0.000000e+00
    outer loop
      vertex  1.322374e+02  3.762563e+00  0.000000e+00
      vertex  1.327500e+02  5.000000e+00  4.000000e+00
      vertex  1.327500e+02  5.000000e+00  0.000000e+00
    endloop
  endfacet
  facet normal -3.826821e-01  9.238801e-01  0.000000e+00
    outer loop
      vertex  1.322374e+02  3.762563e+00  4.000000e+00
      vertex  1.310000e+02  3.250000e+00  0.000000e+00
      vertex  1.310000e+02  3.250000e+00  4.000000e+00
    endloop
  endfacet
  facet normal  3.826821e-01  9.238801e-01  0.000000e+00
    outer loop
      vertex  1.310000e+02  3.250000e+00  4.000000e+00
      vertex  1.310000e+02  3.250000e+00  0.000000e+00
      vertex  1.297626e+02  3.762563e+00  0.000000e+00
    endloop
  endfacet
  facet normal  3.826821e-01  9.238801e-01  -0.000000e+00
    outer loop
      vertex  1.310000e+02  3.250000e+00  4.000000e+00
      vertex  1.297626e+02  3.762563e+00  0.000000e+00
      vertex  1.297626e+02  3.762563e+00  4.000000e+00
    endloop
  endfacet
  facet normal  9.238809e-01  3.826802e-01  0.000000e+00
    outer loop
      vertex  1.297626e+02  3.762563e+00  4.000000e+00
      vertex  1.297626e+02  3.762563e+00  0.000000e+00
      vertex  1.292500e+02  5.000000e+00  0.000000e+00
    endloop
  endfacet
  facet normal  9.238809e-01  3.826802e-01  -0.000000e+00
    outer loop
      vertex  1.297626e+02  3.762563e+00  4.000000e+00
      vertex  1.292500e+02  5.000000e+00  0.000000e+00
      vertex  1.292500e+02  5.000000e+00  4.000000e+00
    endloop
  endfacet
  facet normal  3.826821e-01 -9.238801e-01  0.000000e+00
    outer loop
      vertex  1.310000e+02  6.750000e+00  0.000000e+00
      vertex  1.297626e+02  6.237437e+00  4.000000e+00
      vertex  1.297626e+02  6.237437e+00  0.000000e+00
    endloop
  endfacet
  facet normal  9.238809e-01 -3.826802e-01  0.000000e+00
    outer loop
      vertex  1.297626e+02  6.237437e+00  0.000000e+00
      vertex  1.297626e+02  6.237437e+00  4.000000e+00
      vertex  1.292500e+02  5.000000e+00  4.000000e+00
    endloop
  endfacet
  facet normal  9.238809e-01 -3.826802e-01  0.000000e+00
    outer loop
      vertex  1.297626e+02  6.237437e+00  0.000000e+00
      vertex  1.292500e+02  5.000000e+00  4.000000e+00
      vertex  1.292500e+02  5.000000e+00  0.000000e+00
    endloop
  endfacet
  facet normal  3.826821e-01 -9.238801e-01  0.000000e+00
    outer loop
      vertex  1.297626e+02  6.237437e+00  4.000000e+00
      vertex  1.310000e+02  6.750000e+00  0.000000e+00
      vertex  1.310000e+02  6.750000e+00  4.000000e+00
    endloop
  endfacet
  facet normal -3.826821e-01 -9.238801e-01  -0.000000e+00
    outer loop
      vertex  1.310000e+02  6.750000e+00  4.000000e+00
      vertex  1.310000e+02  6.750000e+00  0.000000e+00
      vertex  1.322374e+02  6.237437e+00  0.000000e+00
    endloop
  endfacet
  facet normal -3.826821e-01 -9.238801e-01  0.000000e+00
    outer loop
      vertex  1.310000e+02  6.750000e+00  4.000000e+00
      vertex  1.322374e+02  6.237437e+00  0.000000e+00
      vertex  1.322374e+02  6.237437e+00  4.000000e+00
    endloop
  endfacet
  facet normal -9.238809e-01 -3.826802e-01  -0.000000e+00
    outer loop
      vertex  1.322374e+02  6.237437e+00  4.000000e+00
      vertex  1.322374e+02  6.237437e+00  0.000000e+00
      vertex  1.327500e+02  5.000000e+00  0.000000e+00
    endloop
  endfacet
  facet normal -9.238809e-01 -3.826802e-01  0.000000e+00
    outer loop
      vertex  1.322374e+02  6.237437e+00  4.000000e+00
      vertex  1.327500e+02  5.000000e+00  0.000000e+00
      vertex  1.327500e+02  5.000000e+00  4.000000e+00
    endloop
  endfacet
  facet normal  3.826835e-01 -9.238795e-01  0.000000e+00
    outer loop
      vertex  5.000000e+00  6.750000e+00  0.000000e+00
      vertex  3.762563e+00  6.237437e+00  4.000000e+00
      vertex  3.762563e+00  6.237437e+00  0.000000e+00
    endloop
  endfacet
  facet normal  9.238795e-01 -3.826835e-01  0.000000e+00
    outer loop
      vertex  3.762563e+00  6.237437e+00  0.000000e+00
      vertex  3.762563e+00  6.237437e+00  4.000000e+00
      vertex  3.250000e+00  5.000000e+00  4.000000e+00
    endloop
  endfacet
  facet normal  9.238795e-01 -3.826835e-01  0.000000e+00
    outer loop
      vertex  3.762563e+00  6.237437e+00  0.000000e+00
      vertex  3.250000e+00  5.000000e+00  4.000000e+00
      vertex  3.250000e+00  5.000000e+00  0.000000e+00
    endloop
  endfacet
  facet normal  3.826835e-01 -9.238795e-01  0.000000e+00
    outer loop
      vertex  3.762563e+00  6.237437e+00  4.000000e+00
      vertex  5.000000e+00  6.750000e+00  0.000000e+00
      vertex  5.000000e+00  6.750000e+00  4.000000e+00
    endloop
  endfacet
  facet normal -3.826835e-01 -9.238795e-01  -0.000000e+00
    outer loop
      vertex  5.000000e+00  6.750000e+00  4.000000e+00
      vertex  5.000000e+00  6.750000e+00  0.000000e+00
      vertex  6.237437e+00  6.237437e+00  0.000000e+00
    endloop
  endfacet
  facet normal -3.826835e-01 -9.238795e-01  0.000000e+00
    outer loop
      vertex  5.000000e+00  6.750000e+00  4.000000e+00
      vertex  6.237437e+00  6.237437e+00  0.000000e+00
      vertex  6.237437e+00  6.237437e+00  4.000000e+00
    endloop
  endfacet
  facet normal -9.238795e-01 -3.826835e-01  -0.000000e+00
    outer loop
      vertex  6.237437e+00  6.237437e+00  4.000000e+00
      vertex  6.237437e+00  6.237437e+00  0.000000e+00
      vertex  6.750000e+00  5.000000e+00  0.000000e+00
    endloop
  endfacet
  facet normal -9.238795e-01 -3.826835e-01  0.000000e+00
    outer loop
      vertex  6.237437e+00  6.237437e+00  4.000000e+00
      vertex  6.750000e+00  5.000000e+00  0.000000e+00
      vertex  6.750000e+00  5.000000e+00  4.000000e+00
    endloop
  endfacet
  facet normal -3.826835e-01  9.238795e-01  0.000000e+00
    outer loop
      vertex  5.000000e+00  3.250000e+00  0.000000e+00
      vertex  6.237437e+00  3.762563e+00  4.000000e+00
      vertex  6.237437e+00  3.762563e+00  0.000000e+00
    endloop
  endfacet
  facet normal -9.238795e-01  3.826835e-01  0.000000e+00
    outer loop
      vertex  6.237437e+00  3.762563e+00  0.000000e+00
      vertex  6.237437e+00  3.762563e+00  4.000000e+00
      vertex  6.750000e+00  5.000000e+00  4.000000e+00
    endloop
  endfacet
  facet normal -9.238795e-01  3.826835e-01  0.000000e+00
    outer loop
      vertex  6.237437e+00  3.762563e+00  0.000000e+00
      vertex  6.750000e+00  5.000000e+00  4.000000e+00
      vertex  6.750000e+00  5.000000e+00  0.000000e+00
    endloop
  endfacet
  facet normal -3.826835e-01  9.238795e-01  0.000000e+00
    outer loop
      vertex  6.237437e+00  3.762563e+00  4.000000e+00
      vertex  5.000000e+00  3.250000e+00  0.000000e+00
      vertex  5.000000e+00  3.250000e+00  4.000000e+00
    endloop
  endfacet
  facet normal  3.826835e-01  9.238795e-01  0.000000e+00
    outer loop
      vertex  5.000000e+00  3.250000e+00  4.000000e+00
      vertex  5.000000e+00  3.250000e+00  0.000000e+00
      vertex  3.762563e+00  3.762563e+00  0.000000e+00
    endloop
  endfacet
  facet normal  3.826835e-01  9.238795e-01  -0.000000e+00
    outer loop
      vertex  5.000000e+00  3.250000e+00  4.000000e+00
      vertex  3.762563e+00  3.762563e+00  0.000000e+00
      vertex  3.762563e+00  3.762563e+00  4.000000e+00
    endloop
  endfacet
  facet normal  9.238795e-01  3.826835e-01  0.000000e+00
    outer loop
      vertex  3.762563e+00  3.762563e+00  4.000000e+00
      vertex  3.762563e+00  3.762563e+00  0.000000e+00
      vertex  3.250000e+00  5.000000e+00  0.000000e+00
    endloop
  endfacet
  facet normal  9.238795e-01  3.826835e-01  -0.000000e+00
    outer loop
      vertex  3.762563e+00  3.762563e+00  4.000000e+00
      vertex  3.250000e+00  5.000000e+00  0.000000e+00
      vertex  3.250000e+00  5.000000e+00  4.000000e+00
    endloop
  endfacet
  facet normal  3.826826e-01 -9.238799e-01  0.000000e+00
    outer loop
      vertex  5.000000e+00  3.275000e+01  0.000000e+00
      vertex  3.762563e+00  3.223744e+01  4.000000e+00
      vertex  3.762563e+00  3.223744e+01  0.000000e+00
    endloop
  endfacet
  facet normal  9.238797e-01 -3.826832e-01  0.000000e+00
    outer loop
      vertex  3.762563e+00  3.223744e+01  0.000000e+00
      vertex  3.762563e+00  3.223744e+01  4.000000e+00
      vertex  3.250000e+00  3.100000e+01  4.000000e+00
    endloop
  endfacet
  facet normal  9.238797e-01 -3.826832e-01  0.000000e+00
    outer loop
      vertex  3.762563e+00  3.223744e+01  0.000000e+00
      vertex  3.250000e+00  3.100000e+01  4.000000e+00
      vertex  3.250000e+00  3.100000e+01  0.000000e+00
    endloop
  endfacet
  facet normal  3.826826e-01 -9.238799e-01  0.000000e+00
    outer loop
      vertex  3.762563e+00  3.223744e+01  4.000000e+00
      vertex  5.000000e+00  3.275000e+01  0.000000e+00
      vertex  5.000000e+00  3.275000e+01  4.000000e+00
    endloop
  endfacet
  facet normal -3.826826e-01 -9.238799e-01  -0.000000e+00
    outer loop
      vertex  5.000000e+00  3.275000e+01  4.000000e+00
      vertex  5.000000e+00  3.275000e+01  0.000000e+00
      vertex  6.237437e+00  3.223744e+01  0.000000e+00
    endloop
  endfacet
  facet normal -3.826826e-01 -9.238799e-01  0.000000e+00
    outer loop
      vertex  5.000000e+00  3.275000e+01  4.000000e+00
      vertex  6.237437e+00  3.223744e+01  0.000000e+00
      vertex  6.237437e+00  3.223744e+01  4.000000e+00
    endloop
  endfacet
  facet normal -9.238797e-01 -3.826832e-01  -0.000000e+00
    outer loop
      vertex  6.237437e+00  3.223744e+01  4.000000e+00
      vertex  6.237437e+00  3.223744e+01  0.000000e+00
      vertex  6.750000e+00  3.100000e+01  0.000000e+00
    endloop
  endfacet
  facet normal -9.238797e-01 -3.826832e-01  0.000000e+00
    outer loop
      vertex  6.237437e+00  3.223744e+01  4.000000e+00
      vertex  6.750000e+00  3.100000e+01  0.000000e+00
      vertex  6.750000e+00  3.100000e+01  4.000000e+00
    endloop
  endfacet
  facet normal -3.826838e-01  9.238793e-01  0.000000e+00
    outer loop
      vertex  5.000000e+00  2.925000e+01  0.000000e+00
      vertex  6.237437e+00  2.976256e+01  4.000000e+00
      vertex  6.237437e+00  2.976256e+01  0.000000e+00
    endloop
  endfacet
  facet normal -9.238795e-01  3.826837e-01  0.000000e+00
    outer loop
      vertex  6.237437e+00  2.976256e+01  0.000000e+00
      vertex  6.237437e+00  2.976256e+01  4.000000e+00
      vertex  6.750000e+00  3.100000e+01  4.000000e+00
    endloop
  endfacet
  facet normal -9.238795e-01  3.826837e-01  0.000000e+00
    outer loop
      vertex  6.237437e+00  2.976256e+01  0.000000e+00
      vertex  6.750000e+00  3.100000e+01  4.000000e+00
      vertex  6.750000e+00  3.100000e+01  0.000000e+00
    endloop
  endfacet
  facet normal -3.826838e-01  9.238793e-01  0.000000e+00
    outer loop
      vertex  6.237437e+00  2.976256e+01  4.000000e+00
      vertex  5.000000e+00  2.925000e+01  0.000000e+00
      vertex  5.000000e+00  2.925000e+01  4.000000e+00
    endloop
  endfacet
  facet normal  3.826838e-01  9.238793e-01  0.000000e+00
    outer loop
      vertex  5.000000e+00  2.925000e+01  4.000000e+00
      vertex  5.000000e+00  2.925000e+01  0.000000e+00
      vertex  3.762563e+00  2.976256e+01  0.000000e+00
    endloop
  endfacet
  facet normal  3.826838e-01  9.238793e-01  -0.000000e+00
    outer loop
      vertex  5.000000e+00  2.925000e+01  4.000000e+00
      vertex  3.762563e+00  2.976256e+01  0.000000e+00
      vertex  3.762563e+00  2.976256e+01  4.000000e+00
    endloop
  endfacet
  facet normal  9.238795e-01  3.826837e-01  0.000000e+00
    outer loop
      vertex  3.762563e+00  2.976256e+01  4.000000e+00
      vertex  3.762563e+00  2.976256e+01  0.000000e+00
      vertex  3.250000e+00  3.100000e+01  0.000000e+00
    endloop
  endfacet
  facet normal  9.238795e-01  3.826837e-01  -0.000000e+00
    outer loop
      vertex  3.762563e+00  2.976256e+01  4.000000e+00
      vertex  3.250000e+00  3.100000e+01  0.000000e+00
      vertex  3.250000e+00  3.100000e+01  4.000000e+00
    endloop
  endfacet
  facet normal -1.000000e+00  0.000000e+00  0.000000e+00
    outer loop
      vertex  0.000000e+00  3.600000e+01  4.000000e+00
      vertex  0.000000e+00  3.600000e+01  0.000000e+00
      vertex  0.000000e+00  0.000000e+00  4.000000e+00
    endloop
  endfacet
  facet normal -1.000000e+00  0.000000e+00  0.000000e+00
    outer loop
      vertex  0.000000e+00  0.000000e+00  4.000000e+00
      vertex  0.000000e+00  3.600000e+01  0.000000e+00
      vertex  0.000000e+00  0.000000e+00  0.000000e+00
    endloop
  endfacet
  facet normal  0.000000e+00  1.000000e+00  -0.000000e+00
    outer loop
      vertex  1.360000e+02  3.600000e+01  4.000000e+00
      vertex  1.360000e+02  3.600000e+01  0.000000e+00
      vertex  0.000000e+00  3.600000e+01  4.000000e+00
    endloop
  endfacet
  facet normal  0.000000e+00  1.000000e+00  0.000000e+00
    outer loop
      vertex  0.000000e+00  3.600000e+01  4.000000e+00
      vertex  1.360000e+02  3.600000e+01  0.000000e+00
      vertex  0.000000e+00  3.600000e+01  0.000000e+00
    endloop
  endfacet
  facet normal  1.000000e+00  0.000000e+00  0.000000e+00
    outer loop
      vertex  1.360000e+02  0.000000e+00  4.000000e+00
      vertex  1.360000e+02  0.000000e+00  0.000000e+00
      vertex  1.360000e+02  3.600000e+01  4.000000e+00
    endloop
  endfacet
  facet normal  1.000000e+00  0.000000e+00  0.000000e+00
    outer loop
      vertex  1.360000e+02  3.600000e+01  4.000000e+00
      vertex  1.360000e+02  0.000000e+00  0.000000e+00
      vertex  1.360000e+02  3.600000e+01  0.000000e+00
    endloop
  endfacet
  facet normal  0.000000e+00 -1.000000e+00  0.000000e+00
    outer loop
      vertex  0.000000e+00  0.000000e+00  4.000000e+00
      vertex  0.000000e+00  0.000000e+00  0.000000e+00
      vertex  1.360000e+02  0.000000e+00  4.000000e+00
    endloop
  endfacet
  facet normal  0.000000e+00 -1.000000e+00  -0.000000e+00
    outer loop
      vertex  1.360000e+02  0.000000e+00  4.000000e+00
      vertex  0.000000e+00  0.000000e+00  0.000000e+00
      vertex  1.360000e+02  0.000000e+00  0.000000e+00
    endloop
  endfacet
endsolid CATIA STL
